<svg width="16" height="16" viewBox="0 0 16 16" fill="none" xmlns="http://www.w3.org/2000/svg">
<path d="M3.72754 1.83398C3.84398 1.83402 3.95603 1.85888 4.05078 1.9043V1.90527L4.05762 1.9082C4.15667 1.95392 4.23771 2.01838 4.30273 2.1123L4.30664 2.11621L5.85254 4.29688L5.85449 4.2998C5.95629 4.4412 6.0222 4.55985 6.06445 4.66309L6.06738 4.6709C6.10789 4.76542 6.12109 4.83803 6.12109 4.88086C6.12106 4.94011 6.10405 5.01095 6.05371 5.09375L6.0498 5.10059L6.04492 5.1084C5.98617 5.21219 5.89095 5.33657 5.75391 5.47363L5.74707 5.48047L5.24707 6C5.07223 6.17484 4.99414 6.39318 4.99414 6.62109C4.99418 6.72161 5.00779 6.80947 5.0293 6.89551L5.03613 6.92285L5.0459 6.94922C5.06021 6.98739 5.07496 7.02102 5.08301 7.04004C5.09055 7.05786 5.09231 7.06421 5.09277 7.06543L5.10742 7.10742L5.12793 7.14648C5.27156 7.4098 5.50348 7.72686 5.80566 8.08398L5.80957 8.08789C6.11457 8.44033 6.44139 8.80173 6.79688 9.16406L6.80078 9.16797C6.83903 9.20621 6.87805 9.24393 6.91211 9.27637C6.9478 9.31036 6.97864 9.33901 7.00684 9.36719L7.01172 9.37207C7.08099 9.43972 7.08086 9.54588 7.01367 9.61328L5.78027 10.8467C5.71755 10.9094 5.61535 10.916 5.54004 10.8457C5.50143 10.8073 5.46337 10.7714 5.42969 10.7393L5.32715 10.6406C4.65827 9.96508 4.05504 9.25773 3.51758 8.51953C3.05552 7.87685 2.67701 7.23974 2.38672 6.61328L2.26758 6.34473C1.97548 5.63466 1.83398 4.97448 1.83398 4.36035C1.83402 3.96643 1.90334 3.59668 2.03809 3.25977L2.03906 3.25684C2.17048 2.92286 2.38047 2.61019 2.68359 2.32422L2.69141 2.31738C3.0426 1.97167 3.38879 1.83398 3.72754 1.83398Z" fill="white" stroke="white"/>
<path d="M11.0938 9.85938C11.1471 9.85938 11.2167 9.87039 11.3115 9.90918C11.416 9.95197 11.5379 10.0188 11.6855 10.1191L13.8838 11.6807L13.8887 11.6836C13.9935 11.7561 14.0477 11.8251 14.0791 11.8926C14.1254 12.0104 14.1475 12.1119 14.1475 12.2197C14.1474 12.3468 14.1234 12.482 14.0762 12.6152C14.0562 12.6685 14.0459 12.6972 14.0332 12.7227L14.0283 12.7324C13.9348 12.9304 13.8147 13.1152 13.6562 13.29C13.3862 13.5875 13.0998 13.7938 12.7871 13.9297L12.7256 13.9561C12.3923 14.0916 12.0294 14.166 11.6338 14.166C11.0329 14.166 10.3727 14.025 9.65625 13.7197C8.92911 13.4099 8.19637 12.9902 7.46484 12.458H7.46582C7.35838 12.3781 7.25315 12.2996 7.15039 12.2217L8.6416 10.7305C8.71144 10.7737 8.77727 10.8148 8.8418 10.8486L8.86426 10.8604L8.8877 10.8701C8.89109 10.8715 8.8986 10.875 8.91992 10.8848C8.93813 10.8931 8.96681 10.906 8.99707 10.9189L9.00781 10.9238L9.01855 10.9277C9.14479 10.975 9.26174 10.9863 9.36035 10.9863C9.6123 10.9863 9.82366 10.8892 9.98535 10.7285L10.4912 10.2285L10.4941 10.2266C10.6406 10.0801 10.7595 9.9904 10.8516 9.94238L10.8662 9.93457L10.8799 9.92676C10.9647 9.87514 11.0296 9.85938 11.0938 9.85938Z" fill="white" stroke="white"/>
</svg>
