<svg width="16" height="16" viewBox="0 0 16 16" fill="none" xmlns="http://www.w3.org/2000/svg">
<path d="M14.666 3.43334V5.90001C14.666 7.40001 14.066 8.00001 12.566 8.00001H10.766C9.26602 8.00001 8.66602 7.40001 8.66602 5.90001V3.43334C8.66602 1.93334 9.26602 1.33334 10.766 1.33334H12.566C14.066 1.33334 14.666 1.93334 14.666 3.43334Z" stroke="#292D32" stroke-width="1.5" stroke-linecap="round" stroke-linejoin="round"/>
<path d="M7.33398 10.1V12.5667C7.33398 14.0667 6.73398 14.6667 5.23398 14.6667H3.43398C1.93398 14.6667 1.33398 14.0667 1.33398 12.5667V10.1C1.33398 8.6 1.93398 8 3.43398 8H5.23398C6.73398 8 7.33398 8.6 7.33398 10.1Z" stroke="#292D32" stroke-width="1.5" stroke-linecap="round" stroke-linejoin="round"/>
<path d="M14.6667 10C14.6667 12.58 12.58 14.6667 10 14.6667L10.7 13.5" stroke="#292D32" stroke-width="1.5" stroke-linecap="round" stroke-linejoin="round"/>
<path d="M1.33398 6.00001C1.33398 3.42001 3.42065 1.33334 6.00065 1.33334L5.30065 2.50001" stroke="#292D32" stroke-width="1.5" stroke-linecap="round" stroke-linejoin="round"/>
</svg>
