<svg width="15" height="15" viewBox="0 0 15 15" fill="none" xmlns="http://www.w3.org/2000/svg">
<path d="M13.4138 5.88172L7.78876 1.50672C7.70653 1.44287 7.60538 1.4082 7.50126 1.4082C7.39715 1.4082 7.296 1.44287 7.21376 1.50672L1.58876 5.88172C1.50061 5.96106 1.44581 6.07086 1.4354 6.189C1.425 6.30714 1.45975 6.42483 1.53267 6.51836C1.60559 6.61189 1.71125 6.6743 1.82836 6.69301C1.94547 6.71173 2.06532 6.68536 2.16376 6.61922L2.65751 6.25047V12.5005C2.65915 12.79 2.77491 13.0673 2.97968 13.2721C3.18444 13.4768 3.46169 13.5926 3.75126 13.5942H11.2513C11.5408 13.5926 11.8181 13.4768 12.0229 13.2721C12.2276 13.0673 12.3434 12.79 12.345 12.5005V6.25047L12.8388 6.63172C12.9206 6.69654 13.0219 6.73179 13.1263 6.73172C13.1975 6.7315 13.2677 6.71506 13.3316 6.68366C13.3954 6.65225 13.4513 6.6067 13.495 6.55047C13.5354 6.502 13.5655 6.44577 13.5833 6.38525C13.6012 6.32473 13.6065 6.26119 13.5989 6.19854C13.5913 6.1359 13.5709 6.07547 13.5391 6.02099C13.5073 5.9665 13.4646 5.91911 13.4138 5.88172ZM6.25126 6.71922C6.40578 6.71922 6.55683 6.76504 6.6853 6.85089C6.81378 6.93673 6.91391 7.05875 6.97304 7.2015C7.03218 7.34426 7.04765 7.50134 7.0175 7.65289C6.98736 7.80444 6.91295 7.94364 6.80369 8.0529C6.69443 8.16216 6.55523 8.23657 6.40368 8.26671C6.25213 8.29686 6.09505 8.28139 5.95229 8.22225C5.80954 8.16312 5.68752 8.06299 5.60168 7.93451C5.51583 7.80604 5.47001 7.65499 5.47001 7.50047C5.47001 7.29327 5.55232 7.09456 5.69884 6.94805C5.84535 6.80153 6.04406 6.71922 6.25126 6.71922ZM8.75126 10.7817C8.59675 10.7817 8.4457 10.7359 8.31722 10.6501C8.18875 10.5642 8.08861 10.4422 8.02948 10.2994C7.97035 10.1567 7.95488 9.99961 7.98503 9.84806C8.01517 9.69651 8.08958 9.55731 8.19884 9.44805C8.3081 9.33879 8.4473 9.26438 8.59885 9.23424C8.7504 9.20409 8.90748 9.21956 9.05024 9.27869C9.19299 9.33782 9.315 9.43796 9.40085 9.56643C9.48669 9.69491 9.53251 9.84596 9.53251 10.0005C9.53251 10.2077 9.4502 10.4064 9.30369 10.5529C9.15718 10.6994 8.95846 10.7817 8.75126 10.7817ZM9.70751 7.20672L5.95751 10.9567C5.86962 11.0445 5.75048 11.0938 5.62626 11.0938C5.50204 11.0938 5.3829 11.0445 5.29501 10.9567C5.20723 10.8688 5.15793 10.7497 5.15793 10.6255C5.15793 10.5013 5.20723 10.3821 5.29501 10.2942L9.04501 6.54422C9.13387 6.46142 9.2514 6.41635 9.37284 6.41849C9.49428 6.42063 9.61014 6.46983 9.69603 6.55571C9.78191 6.64159 9.83111 6.75746 9.83325 6.8789C9.83539 7.00034 9.79031 7.11786 9.70751 7.20672Z" fill="#66AE39"/>
</svg>
