<svg width="80" height="80" viewBox="0 0 80 80" fill="none" xmlns="http://www.w3.org/2000/svg">
<circle cx="40" cy="40" r="39.5" fill="white" stroke="#AA1E2E"/>
<path d="M19.6957 34.8262L16.0195 53.0488H24.0438L27.7199 34.8262H19.6957Z" fill="#AA1E2E"/>
<path d="M61.7933 52.8908C58.3938 52.7327 55.6269 52.5745 52.267 51.4282C56.5755 49.4123 64.165 42.8506 64.165 32.8499C64.165 25.3395 59.2635 20.8333 51.0811 20.8333C37.0881 20.8333 29.6172 32.8894 29.6172 41.5857C29.6172 49.096 34.4792 53.6023 42.6616 53.6023C43.7288 53.6023 44.638 53.5628 45.389 53.4442C50.0534 56.4483 53.5319 57.8713 58.2753 58.6224L58.4729 58.6619L62.9001 53.0884L61.7933 52.8908ZM44.5194 47.7521C41.1595 47.7521 39.0249 45.1827 39.0249 41.0718C39.0249 35.103 42.1477 26.6439 49.0652 26.6439C52.8203 26.6439 54.7572 28.897 54.7572 33.4033C54.7572 39.1744 51.5159 47.7521 44.5194 47.7521Z" fill="#AA1E2E"/>
<path d="M28.9459 27.5926C28.9459 30.1619 26.8509 32.2569 24.2815 32.2569C21.7122 32.2569 19.6172 30.1619 19.6172 27.5926C19.6172 25.0232 21.7122 22.9282 24.2815 22.9282C26.8509 22.9282 28.9459 25.0232 28.9459 27.5926Z" fill="#AA1E2E"/>
<path d="M48.4347 58.0296C48.4347 58.4249 48.1185 58.7411 47.7232 58.7411C47.3279 58.7411 47.0117 58.4249 47.0117 58.0296C47.0117 57.6343 47.3279 57.3181 47.7232 57.3181C48.1185 57.3181 48.4347 57.6343 48.4347 58.0296ZM47.1698 58.0296C47.1698 58.3459 47.407 58.583 47.7232 58.583C48.0395 58.583 48.2371 58.3459 48.2371 58.0296C48.2371 57.7134 47.9999 57.4762 47.6837 57.4762C47.407 57.4762 47.1698 57.7134 47.1698 58.0296ZM47.6046 58.3854H47.4465V57.6739C47.5256 57.6739 47.6046 57.6343 47.7232 57.6343C47.8418 57.6343 47.9209 57.6739 47.9604 57.6739C47.9999 57.7134 48.0395 57.7529 48.0395 57.832C48.0395 57.911 47.9604 57.9901 47.8813 57.9901C47.9604 58.0296 47.9999 58.0692 47.9999 58.1482C48.0395 58.2668 48.0395 58.3063 48.0395 58.3063H47.8813C47.8418 58.2668 47.8418 58.2273 47.8418 58.1482C47.8418 58.0692 47.8023 58.0296 47.6837 58.0296H47.6046V58.3854ZM47.6046 57.9901H47.6837C47.7628 57.9901 47.8418 57.9506 47.8418 57.8715C47.8418 57.7925 47.8023 57.7529 47.6837 57.7529C47.6442 57.7529 47.6046 57.7529 47.6046 57.7529V57.9901Z" fill="#AA1E2E"/>
<path d="M43.2173 55.9741C42.9801 55.6974 42.5849 55.5393 42.071 55.5393C41.0433 55.5393 40.1736 56.2113 39.976 57.16C39.8969 57.6343 39.976 58.0691 40.2132 58.3458C40.4503 58.662 40.8456 58.7806 41.3595 58.7806C42.3872 58.7806 43.2568 58.1087 43.4545 57.16C43.494 56.8833 43.5335 56.3694 43.2173 55.9741ZM42.5849 57.0414C42.4663 57.6343 42.1105 58.3458 41.4781 58.3458C41.2804 58.3458 41.1223 58.2668 41.0433 58.1482C40.9247 58.0296 40.8851 57.832 40.8851 57.6343C40.8851 57.5553 40.8851 57.4367 40.9247 57.3181C41.0433 56.7252 41.32 55.9741 42.071 55.9741C42.2686 55.9741 42.4267 56.0532 42.5058 56.1718C42.5849 56.3299 42.6244 56.6856 42.5849 57.0414ZM46.7353 55.5788H46.5772H46.3401L46.3005 55.6579C46.3005 55.6579 46.0238 57.0809 45.9448 57.4367C45.6681 57.0809 45.4309 56.6856 45.1542 56.3694L44.6008 55.5788H44.5613H44.0474L43.4545 58.7016H43.6521H43.7707H43.8893H44.0474V58.6225C44.0474 58.6225 44.3241 57.1204 44.4032 56.7647C44.5218 56.9228 44.6403 57.0809 44.6403 57.0809C44.917 57.4762 45.1937 57.8715 45.51 58.2668L45.8262 58.7016H46.3005L46.8935 55.5788H46.7353ZM39.7388 55.6184H39.5016H39.2645H39.1064V55.6974L38.5134 58.7411H38.7111H38.9483H39.1854H39.3435V58.662L39.9365 55.6184H39.8179H39.7388ZM34.9164 55.6184H34.6792L34.6397 55.6974L34.4025 57.0019C34.363 57.1995 34.2839 57.6738 34.1653 57.8715C33.9677 58.2272 33.7305 58.3458 33.3747 58.3458C33.2166 58.3458 33.0981 58.3063 32.9795 58.1877C32.8609 58.0691 32.8609 57.9505 32.8609 57.7529C32.8609 57.5553 32.9004 57.3181 32.9795 57.0809L33.019 56.9623L33.2957 55.6184H33.1771H33.098H32.8609H32.6237H32.4656V55.6974L32.1098 57.4367C32.0703 57.6343 32.0703 57.832 32.0703 57.9901C32.1098 58.5039 32.5447 58.7806 33.2562 58.7806C33.6119 58.7806 33.9281 58.7016 34.1653 58.5435C34.6792 58.2272 34.7978 57.7529 34.8768 57.2786V57.239L35.1931 55.5788L34.9164 55.6184ZM38.4344 55.5788H38.2763H38.0391L37.9996 55.6579C37.9996 55.6579 37.7229 57.0809 37.6438 57.4367C37.3671 57.0809 37.1299 56.7252 36.8532 56.3694L36.2603 55.5788H36.2208H35.7069L35.114 58.7016H35.3116H35.4302H35.5488H35.7069V58.6225C35.7069 58.6225 35.9836 57.1204 36.0627 56.7647C36.1813 56.9228 36.2998 57.0809 36.2998 57.0809C36.5765 57.4762 36.8532 57.8715 37.1695 58.2668L37.4857 58.7016H37.96L38.553 55.5788H38.4344Z" fill="#AA1E2E"/>
<path d="M27.2083 58.662H27.4454H27.6036V58.5829L28.1965 55.5393H28.0779H27.9988H27.7617H27.5245H27.3664V55.6183L26.7735 58.662H26.9711H27.2083ZM18.8283 58.662H19.0654H19.3026H19.4607V58.5829C19.4607 58.5829 19.6188 57.8319 19.6584 57.4762C19.6979 57.5552 19.7374 57.6738 19.7374 57.6738L20.0932 58.6225H20.2513H20.528H20.8047H21.0814L21.0023 58.4644L20.8837 58.1877L20.7652 57.911C20.6466 57.6343 20.528 57.3576 20.4094 57.0809C20.8442 56.9623 21.1209 56.6856 21.2 56.2903C21.2 56.2112 21.2 56.1717 21.2 56.1322C21.2 55.895 21.0814 55.7369 20.8837 55.5788C20.7256 55.4602 20.4094 55.4602 20.2118 55.4997H19.184L18.5911 58.6225L18.8283 58.662ZM19.9746 55.9741C20.1327 55.9741 20.2513 55.9741 20.3303 56.0531C20.3699 56.0927 20.3699 56.1322 20.3699 56.2112V56.4089C20.2908 56.7646 20.0932 56.9623 19.7769 56.9623C19.8165 56.7646 19.9746 56.0927 19.9746 55.9741ZM23.0973 58.662V58.5434V58.4248L23.1369 58.3062L23.2159 58.1086L23.0578 58.1481C22.7811 58.1877 22.5439 58.1877 22.1882 58.1877C22.2277 58.0295 22.3463 57.3971 22.3463 57.2785H22.702C22.8602 57.2785 23.0183 57.2785 23.2159 57.318H23.3345V57.1599V57.0413L23.374 56.9228L23.4531 56.7251L23.295 56.7646C23.0973 56.8042 22.9392 56.8042 22.7811 56.8042H22.4649C22.5044 56.6461 22.5835 56.1717 22.623 56.0927C23.0183 56.0927 23.2554 56.1322 23.4926 56.1717H23.6112V56.0136V55.895L23.6507 55.7764L23.6903 55.6183H23.5717H21.8719L21.279 58.7411H23.0973V58.662ZM24.7575 58.662C25.7457 58.662 26.5363 58.0295 26.6944 57.0413C26.7735 56.6065 26.6944 56.2112 26.4968 55.9345C26.2991 55.6974 25.9829 55.5393 25.5876 55.5393H24.046L23.4531 58.662H24.7575ZM24.797 55.9741H25.1528C25.4295 55.9741 25.6271 56.0531 25.7457 56.1717C25.8248 56.2903 25.8643 56.4089 25.8643 56.6065C25.8643 56.7251 25.8643 56.8437 25.8248 56.9623C25.6667 57.7924 25.2714 58.1877 24.6389 58.1877H24.4018C24.4018 57.99 24.7575 56.1322 24.797 55.9741ZM29.1847 56.0531C29.1452 56.2903 28.6708 58.7015 28.6708 58.7015H28.8685H29.1056H29.3428H29.5009V58.6225C29.5009 58.6225 29.9753 56.2112 30.0148 56.0531C30.252 56.0531 30.4496 56.0927 30.6868 56.0927H30.8054V55.9741V55.9345V55.816L30.8449 55.6974L30.9239 55.5393H30.8054H28.5127V55.6974V55.816L28.4732 55.9345L28.3941 56.1322L28.5522 56.0927C28.7104 56.0927 28.9475 56.0531 29.1847 56.0531ZM18.2353 58.5039L18.4725 58.0295L18.2749 57.9505L18.2353 57.99C17.9982 58.1481 17.6819 58.3062 17.4843 58.3062C17.2471 58.3062 17.0495 58.2272 16.9309 58.0691C16.7728 57.8714 16.7333 57.5552 16.8123 57.1599C16.9309 56.5275 17.3262 55.9345 17.9586 55.9345C18.1958 55.9345 18.3934 56.0531 18.512 56.2903L18.5516 56.3298H18.6701L18.7492 56.0927L18.9073 55.7369L18.8283 55.6974C18.5911 55.5393 18.2749 55.4602 17.9586 55.4602C17.089 55.4602 16.1008 55.895 15.8636 57.1599C15.7846 57.5947 15.8636 57.9505 16.1008 58.2272C16.338 58.5434 16.7728 58.7015 17.2867 58.7015C17.5238 58.7411 17.84 58.7015 18.2353 58.5039Z" fill="#AA1E2E"/>
</svg>
