<svg width="50" height="50" viewBox="0 0 50 50" fill="none" xmlns="http://www.w3.org/2000/svg">
<circle cx="25" cy="25" r="24" fill="white" stroke="white" stroke-width="2"/>
<path d="M24.9991 9.87939C22.3665 9.87978 19.7802 10.5729 17.5003 11.8892C15.2204 13.2055 13.3271 15.0985 12.0105 17.3782C10.694 19.6578 10.0006 22.2437 10 24.8761C9.99943 27.5086 10.6917 30.0948 12.0073 32.375C13.3228 34.6552 15.2153 36.5491 17.4947 37.8663C19.774 39.1836 22.3599 39.8779 24.9926 39.8794C27.6253 39.8809 30.212 39.1896 32.4929 37.875C34.7737 36.5604 36.6685 34.6687 37.9867 32.3901C39.3188 30.1131 40.0141 27.5199 39.9998 24.882C40.0002 22.912 39.6125 20.9612 38.8589 19.141C38.1052 17.3208 37.0003 15.6669 35.6073 14.2737C34.2143 12.8806 32.5605 11.7755 30.7404 11.0215C28.9202 10.2675 26.9693 9.87939 24.9991 9.87939ZM15.8268 33.1182L17.4541 23.9396C18.0315 20.449 19.8692 17.5842 23.0119 16.6412L21.38 25.8425C20.7004 29.4179 18.9254 32.1545 15.8268 33.1182ZM21.0266 35.3758L23.4779 21.6464C24.0553 18.1545 25.893 15.2923 29.0351 14.348L26.5798 28.1001C25.9015 31.6755 24.1259 34.4114 21.0266 35.3758ZM32.6011 25.8425C31.9227 29.4179 30.1471 32.1545 27.0478 33.1182L28.6758 23.9396C29.2532 20.449 31.0896 17.5842 34.2323 16.6412L32.6011 25.8425Z" fill="#194B9B"/>
</svg>
