<svg width="50" height="50" viewBox="0 0 50 50" fill="none" xmlns="http://www.w3.org/2000/svg">
<circle cx="25" cy="25" r="24" fill="white" stroke="white" stroke-width="2"/>
<path d="M21.61 24.8413L13.5823 38.7583L8.59375 30.2519L11.7121 24.8413L8.59375 19.5064L13.5031 11L21.61 24.8413Z" fill="#F7D60B"/>
<path d="M39.923 27.3155L41.4049 24.8413L39.923 22.2914C38.9879 20.7455 37.4307 19.4307 34.4669 19.4307H28.3887L31.507 24.8413L28.3887 30.2519L34.4669 30.1762C37.4267 30.1762 38.9879 28.8614 39.923 27.3155Z" fill="#738893"/>
<path d="M28.3884 19.4269H34.4666C37.4265 19.4269 38.9876 20.7417 39.9227 22.2875C40.002 22.3632 40.002 22.4429 40.0773 22.4429L35.0887 13.9405C33.9198 12.0082 32.2041 11.0042 29.4781 11.0042H17.0879L22.0764 19.4269H28.3884ZM34.4666 30.1764L28.3884 30.2521H22.1517L17.1671 38.7584H29.5573C32.2834 38.7584 33.9991 37.6747 35.1679 35.6666L40.0773 27.1603L39.9227 27.3157C38.9876 28.8616 37.4265 30.1764 34.4666 30.1764Z" fill="#0B2A45"/>
</svg>
