<svg width="50" height="50" viewBox="0 0 50 50" fill="none" xmlns="http://www.w3.org/2000/svg">
<circle cx="25" cy="25" r="24" fill="white" stroke="white" stroke-width="2"/>
<circle cx="25" cy="24.8794" r="15" fill="#004FC2"/>
<mask id="mask0_1194_11473" style="mask-type:alpha" maskUnits="userSpaceOnUse" x="22" y="17" width="11" height="5">
<path d="M22.1699 17.0801H32.6679V21.6612H22.1699V17.0801Z" fill="white"/>
</mask>
<g mask="url(#mask0_1194_11473)">
<path fill-rule="evenodd" clip-rule="evenodd" d="M32.6679 21.6527H32.2323C29.0614 21.6527 25.8904 21.6457 22.7196 21.6613C22.3037 21.6634 22.1592 21.5545 22.1705 21.1238C22.1988 20.0431 22.1784 18.9613 22.1805 17.88C22.1816 17.273 22.3592 17.0852 22.9517 17.0837C24.4861 17.0797 26.0204 17.0759 27.5546 17.0907C27.7413 17.0925 27.9746 17.1572 28.1053 17.2793C29.5898 18.6652 31.0589 20.0676 32.5309 21.4668C32.5693 21.5035 32.5954 21.5533 32.6679 21.6527Z" fill="white"/>
</g>
<path fill-rule="evenodd" clip-rule="evenodd" d="M28.8308 33.0787C28.8217 32.8953 28.8104 32.7701 28.8104 32.6451C28.8093 29.5012 28.817 26.3575 28.8008 23.2138C28.7985 22.789 28.9262 22.6689 29.3342 22.6793C30.3727 22.7058 31.4125 22.6867 32.4516 22.6888C33.0531 22.6899 33.1954 22.8252 33.1968 23.4178C33.2006 24.9679 33.2065 26.5182 33.1879 28.0681C33.1854 28.2781 33.1008 28.537 32.9632 28.6873C31.6725 30.0966 30.3622 31.4874 29.0563 32.8823C29.0017 32.9409 28.9354 32.9883 28.8308 33.0787Z" fill="white"/>
<path fill-rule="evenodd" clip-rule="evenodd" d="M17.1992 29.0785H17.6794C20.794 29.0785 23.9089 29.0781 27.0236 29.0788C27.5971 29.0789 27.5978 29.081 27.5981 29.6503C27.5986 30.6766 27.6008 31.7028 27.597 32.7291C27.5949 33.2896 27.408 33.4745 26.8401 33.4756C25.2828 33.4786 23.7252 33.482 22.168 33.4691C21.996 33.4677 21.7806 33.4076 21.6601 33.2969C20.2166 31.9706 18.7871 30.6299 17.3554 29.2917C17.3158 29.2548 17.2901 29.204 17.1992 29.0785Z" fill="white"/>
<path fill-rule="evenodd" clip-rule="evenodd" d="M21.1674 17.479C21.1776 17.6763 21.1908 17.8152 21.1909 17.9542C21.1921 21.0728 21.1838 24.1915 21.2007 27.3101C21.2032 27.7513 21.0819 27.8907 20.6463 27.8782C19.5931 27.8477 18.5383 27.8715 17.4842 27.8663C16.9572 27.8638 16.8048 27.7035 16.8038 27.1549C16.8008 25.5955 16.7966 24.0361 16.8107 22.477C16.8123 22.2915 16.8739 22.0591 16.9922 21.9294C18.3056 20.4926 19.6353 19.0716 20.9617 17.6474C21.0073 17.5986 21.0652 17.562 21.1674 17.479Z" fill="white"/>
</svg>
