<svg width="420" height="300" viewBox="0 0 420 300" fill="none" xmlns="http://www.w3.org/2000/svg">
<path d="M158 300C240.843 300 308 232.843 308 150C308 67.1573 240.843 0 158 0C75.1573 0 8 67.1573 8 150C8 232.843 75.1573 300 158 300Z" fill="#EEF4FF"/>
<g filter="url(#filter0_d_1905_19611)">
<g filter="url(#filter1_d_1905_19611)">
<path d="M360 68H90C84.4772 68 80 72.4772 80 78V128C80 133.523 84.4772 138 90 138H360C365.523 138 370 133.523 370 128V78C370 72.4772 365.523 68 360 68Z" fill="white"/>
</g>
<path d="M218 84H166C162.686 84 160 86.6863 160 90C160 93.3137 162.686 96 166 96H218C221.314 96 224 93.3137 224 90C224 86.6863 221.314 84 218 84Z" fill="#EEF4FF"/>
<path d="M254 110H166C162.686 110 160 112.686 160 116C160 119.314 162.686 122 166 122H254C257.314 122 260 119.314 260 116C260 112.686 257.314 110 254 110Z" fill="#1C4692"/>
<path d="M144 103C144 86.9837 131.016 74 115 74C98.9837 74 86 86.9837 86 103C86 119.016 98.9837 132 115 132C131.016 132 144 119.016 144 103Z" fill="#1C4692"/>
<path d="M113.2 112.388C115.683 112.388 118.094 111.557 120.05 110.028L126.2 116.178L128.178 114.2L122.026 108.048C123.572 106.05 124.395 103.587 124.361 101.061C124.328 98.5344 123.44 96.094 121.842 94.1371C120.245 92.1802 118.031 90.8222 115.563 90.2844C113.094 89.7465 110.516 90.0606 108.249 91.1754C105.982 92.2902 104.159 94.14 103.078 96.4233C101.997 98.7066 101.721 101.289 102.295 103.749C102.869 106.209 104.26 108.403 106.24 109.971C108.22 111.54 110.674 112.392 113.2 112.388ZM113.2 92.8001C114.861 92.8001 116.485 93.2927 117.867 94.2157C119.248 95.1387 120.325 96.4506 120.961 97.9855C121.596 99.5204 121.763 101.209 121.439 102.839C121.114 104.468 120.314 105.965 119.14 107.14C117.965 108.315 116.468 109.115 114.839 109.439C113.209 109.763 111.52 109.596 109.985 108.961C108.45 108.325 107.139 107.248 106.216 105.867C105.293 104.485 104.8 102.861 104.8 101.2C104.8 98.9723 105.685 96.8357 107.26 95.2604C108.836 93.6851 110.972 92.8001 113.2 92.8001Z" fill="white"/>
</g>
<g filter="url(#filter2_d_1905_19611)">
<path d="M330 158H60C54.4772 158 50 162.477 50 168V218C50 223.523 54.4772 228 60 228H330C335.523 228 340 223.523 340 218V168C340 162.477 335.523 158 330 158Z" fill="white"/>
</g>
<path d="M188 174H136C132.686 174 130 176.686 130 180C130 183.314 132.686 186 136 186H188C191.314 186 194 183.314 194 180C194 176.686 191.314 174 188 174Z" fill="#EEF4FF"/>
<path d="M224 200H136C132.686 200 130 202.686 130 206C130 209.314 132.686 212 136 212H224C227.314 212 230 209.314 230 206C230 202.686 227.314 200 224 200Z" fill="#1C4692"/>
<path d="M114 193C114 176.984 101.016 164 85 164C68.9837 164 56 176.984 56 193C56 209.016 68.9837 222 85 222C101.016 222 114 209.016 114 193Z" fill="#1C4692"/>
<path d="M83.1999 202.388C85.6826 202.388 88.0939 201.557 90.0499 200.028L96.1999 206.178L98.1779 204.2L92.0259 198.048C93.5716 196.05 94.3948 193.587 94.3615 191.061C94.3281 188.534 93.4402 186.094 91.8424 184.137C90.2445 182.18 88.031 180.822 85.5625 180.284C83.0941 179.747 80.5162 180.061 78.2491 181.175C75.982 182.29 74.1593 184.14 73.0781 186.423C71.9968 188.707 71.7208 191.289 72.295 193.749C72.8692 196.209 74.2598 198.403 76.2401 199.971C78.2203 201.54 80.6736 202.392 83.1999 202.388ZM83.1999 182.8C84.8613 182.8 86.4853 183.293 87.8667 184.216C89.2481 185.139 90.3247 186.451 90.9605 187.986C91.5963 189.52 91.7626 191.209 91.4385 192.839C91.1144 194.468 90.3144 195.965 89.1396 197.14C87.9649 198.315 86.4681 199.115 84.8387 199.439C83.2092 199.763 81.5203 199.596 79.9854 198.961C78.4505 198.325 77.1386 197.248 76.2156 195.867C75.2926 194.485 74.7999 192.861 74.7999 191.2C74.7999 188.972 75.6849 186.836 77.2602 185.26C78.8355 183.685 80.9721 182.8 83.1999 182.8Z" fill="white"/>
<defs>
<filter id="filter0_d_1905_19611" x="30" y="18" width="390" height="170" filterUnits="userSpaceOnUse" color-interpolation-filters="sRGB">
<feFlood flood-opacity="0" result="BackgroundImageFix"/>
<feColorMatrix in="SourceAlpha" type="matrix" values="0 0 0 0 0 0 0 0 0 0 0 0 0 0 0 0 0 0 127 0" result="hardAlpha"/>
<feOffset/>
<feGaussianBlur stdDeviation="25"/>
<feColorMatrix type="matrix" values="0 0 0 0 0 0 0 0 0 0 0 0 0 0 0 0 0 0 0.1 0"/>
<feBlend mode="normal" in2="BackgroundImageFix" result="effect1_dropShadow_1905_19611"/>
<feBlend mode="normal" in="SourceGraphic" in2="effect1_dropShadow_1905_19611" result="shape"/>
</filter>
<filter id="filter1_d_1905_19611" x="30" y="18" width="390" height="170" filterUnits="userSpaceOnUse" color-interpolation-filters="sRGB">
<feFlood flood-opacity="0" result="BackgroundImageFix"/>
<feColorMatrix in="SourceAlpha" type="matrix" values="0 0 0 0 0 0 0 0 0 0 0 0 0 0 0 0 0 0 127 0" result="hardAlpha"/>
<feOffset/>
<feGaussianBlur stdDeviation="25"/>
<feColorMatrix type="matrix" values="0 0 0 0 0 0 0 0 0 0 0 0 0 0 0 0 0 0 0.1 0"/>
<feBlend mode="normal" in2="BackgroundImageFix" result="effect1_dropShadow_1905_19611"/>
<feBlend mode="normal" in="SourceGraphic" in2="effect1_dropShadow_1905_19611" result="shape"/>
</filter>
<filter id="filter2_d_1905_19611" x="0" y="108" width="390" height="170" filterUnits="userSpaceOnUse" color-interpolation-filters="sRGB">
<feFlood flood-opacity="0" result="BackgroundImageFix"/>
<feColorMatrix in="SourceAlpha" type="matrix" values="0 0 0 0 0 0 0 0 0 0 0 0 0 0 0 0 0 0 127 0" result="hardAlpha"/>
<feOffset/>
<feGaussianBlur stdDeviation="25"/>
<feColorMatrix type="matrix" values="0 0 0 0 0 0 0 0 0 0 0 0 0 0 0 0 0 0 0.1 0"/>
<feBlend mode="normal" in2="BackgroundImageFix" result="effect1_dropShadow_1905_19611"/>
<feBlend mode="normal" in="SourceGraphic" in2="effect1_dropShadow_1905_19611" result="shape"/>
</filter>
</defs>
</svg>
