<svg width="237" height="100" viewBox="0 0 237 100" fill="none" xmlns="http://www.w3.org/2000/svg">
<path d="M12.5613 26.71C15.522 26.71 17.9221 24.3098 17.9221 21.3491C17.9221 18.3884 15.522 15.9883 12.5613 15.9883C9.60057 15.9883 7.20044 18.3884 7.20044 21.3491C7.20044 24.3098 9.60057 26.71 12.5613 26.71Z" fill="#602A7F"/>
<path d="M50.1657 19.9024C53.7806 19.9024 56.711 16.972 56.711 13.3571C56.711 9.7422 53.7806 6.81177 50.1657 6.81177C46.5508 6.81177 43.6204 9.7422 43.6204 13.3571C43.6204 16.972 46.5508 19.9024 50.1657 19.9024Z" fill="#FBAD1B"/>
<path d="M16.267 28.4068C16.8408 28.4068 17.3941 28.4642 17.9351 28.5666V42.7024H0V37.1981C0 32.3455 3.93866 28.4109 8.7913 28.4109H16.267V28.4068Z" fill="#602A7F"/>
<path d="M62.6944 30.8536V42.6983H44.9971V24.4968C44.9971 23.714 44.9069 22.9558 44.7266 22.2304C45.2758 22.1197 45.8414 22.0623 46.4233 22.0623H53.9031C58.7558 22.0623 62.6944 26.001 62.6944 30.8536Z" fill="#FBAD1B"/>
<path d="M38.468 7.00026C38.468 10.8611 35.3286 14.0046 31.4678 14.0046C27.607 14.0046 24.4675 10.8611 24.4675 7.00026C24.4675 3.13947 27.607 0 31.4678 0C35.3286 0 38.468 3.14356 38.468 7.00026Z" fill="#EA6C35"/>
<path d="M43.4068 24.4927V42.6409H19.5248V24.4927C19.5248 20.0089 23.1766 16.3571 27.6644 16.3571H35.2631C39.128 16.3571 42.374 19.0622 43.1978 22.673C43.3371 23.2549 43.4068 23.8697 43.4068 24.4927Z" fill="#EA6C35"/>
<path d="M25.9476 87.8065C26.0173 87.7819 26.087 87.7614 26.1485 87.745C26.0788 87.7696 26.0173 87.7901 25.9476 87.8147V87.8065Z" fill="#1C4692"/>
<path d="M61.908 75.4454C61.949 76.5233 61.5555 77.6053 60.744 78.4168C59.9735 79.1832 58.9612 79.6013 57.8833 79.6013C56.8054 79.6013 55.793 79.1832 55.0307 78.4168L50.8092 74.1994L44.2926 67.6951C43.9934 67.3959 43.5098 67.3959 43.2106 67.6951C42.9114 67.9943 42.9114 68.4738 43.2106 68.7771L48.3583 73.9248L53.9774 79.5357C55.5553 81.1095 55.5553 83.6711 53.9692 85.2531C53.211 86.0113 52.2068 86.4253 51.1248 86.4253C50.0428 86.4253 49.0305 86.0113 48.2805 85.2408L37.5055 74.4822C37.4276 74.4166 37.3005 74.3347 37.1981 74.2978C36.8579 74.1707 36.4726 74.2855 36.2718 74.5888C36.0669 74.888 36.112 75.2937 36.3661 75.5601L47.1247 86.3187C47.8952 87.0687 48.3091 88.0893 48.3091 89.1672C48.3091 90.2451 47.8952 91.2533 47.1247 92.0197C46.3746 92.7862 45.3623 93.196 44.2803 93.196C43.1983 93.196 42.1778 92.7821 41.4277 92.0197L30.6692 81.2611C30.37 80.962 29.8781 80.9702 29.5789 81.2693C29.2675 81.5685 29.2675 82.0522 29.5789 82.3514L40.3334 93.11C41.104 93.8805 41.522 94.901 41.522 95.9707C41.522 97.0404 41.104 98.061 40.3334 98.8233C39.5752 99.5897 38.5588 100.008 37.4727 100.008C36.3866 100.008 35.3783 99.5897 34.6283 98.8233L31.8618 96.0568C32.0299 95.856 32.1897 95.651 32.3291 95.4256C32.4028 95.3272 32.4602 95.2248 32.5135 95.1182C32.5586 95.0403 32.5995 94.9707 32.6282 94.901C32.661 94.8559 32.6815 94.8067 32.702 94.7616C32.7635 94.6305 32.8209 94.4911 32.87 94.3477C32.9233 94.2083 32.9684 94.0608 33.0176 93.9132C33.0258 93.8682 33.0422 93.8272 33.0504 93.7862C33.075 93.655 33.1119 93.528 33.1283 93.3928C33.161 93.2452 33.1733 93.0935 33.1938 92.9419C33.2143 92.7575 33.2184 92.5771 33.2184 92.3845C33.2184 90.8681 32.6323 89.4582 31.5708 88.4008C30.3536 87.1835 28.6978 86.6261 27.0748 86.7736C26.9436 86.7941 26.8166 86.8064 26.6813 86.8269C26.5338 86.8515 26.3903 86.872 26.251 86.913C26.2919 86.7614 26.3247 86.6056 26.3452 86.4458C26.3657 86.3392 26.378 86.2286 26.3903 86.122C26.4108 85.9376 26.4149 85.7572 26.4149 85.5687C26.4149 84.0727 25.8288 82.6546 24.7509 81.5931C23.3943 80.2242 21.4475 79.6996 19.6483 80.0644C19.5868 80.0726 19.5171 80.0849 19.4556 80.0972V80.089C19.4556 80.089 19.4638 80.0562 19.4679 80.0275C19.4925 79.9128 19.513 79.7939 19.5417 79.675C19.5868 79.384 19.6073 79.0848 19.6073 78.7774C19.6073 77.2733 19.0212 75.8634 17.9638 74.7937C16.8818 73.7035 15.4309 73.1461 13.9595 73.1502C13.8325 73.1502 13.7054 73.1584 13.5743 73.1625L13.1972 73.2035C13.0988 73.2117 12.9841 73.2363 12.8857 73.2568C12.8529 73.265 12.8119 73.2773 12.771 73.2814V73.2732H12.7792V73.2527C12.7874 73.2076 12.7996 73.1748 12.8037 73.1256C12.816 73.0395 12.8283 72.9576 12.8488 72.8797V72.8469C12.8611 72.7281 12.8734 72.5928 12.8816 72.4617C12.8939 72.3346 12.9021 72.2034 12.9021 72.0641C12.9021 70.5558 12.316 69.1378 11.2463 68.0886C10.8324 67.6705 10.3733 67.3221 9.86102 67.0721C9.38969 66.818 8.88147 66.6459 8.34456 66.5475C8.16423 66.5065 7.99209 66.4737 7.80766 66.4696C7.62732 66.4491 7.44289 66.4368 7.27075 66.4368C7.09862 66.4368 6.91009 66.4491 6.73385 66.4696C6.54942 66.4778 6.37318 66.5106 6.19695 66.5475C5.66004 66.6459 5.15183 66.8221 4.6723 67.0721C4.16818 67.3262 3.70915 67.6705 3.287 68.0886L0.114758 71.2608C0.0819697 71.3018 0.0409851 71.3346 0 71.3755V44.1409H21.1893L10.0823 55.2397C7.60684 57.7275 7.60683 61.7686 10.0905 64.2564C11.2873 65.4655 12.898 66.1336 14.5989 66.1336C16.2998 66.1336 17.9023 65.4696 19.1073 64.2564L32.9069 50.465C34.448 48.9157 36.9645 48.9157 38.5055 50.465L60.744 72.6953C61.4941 73.4453 61.8875 74.4371 61.908 75.4372V75.4454Z" fill="#1C4692"/>
<path d="M12.775 73.2814H12.7668V73.2896C12.8078 73.2814 12.8447 73.2691 12.8816 73.265C12.8488 73.265 12.816 73.2732 12.775 73.2855V73.2814ZM10.7996 74.1339H10.8078C10.8078 74.1339 10.8282 74.0929 10.8405 74.0724C10.8282 74.0929 10.816 74.1134 10.7996 74.1339ZM25.9436 87.8065V87.8147C26.0173 87.7942 26.0747 87.7696 26.1444 87.7491C26.0829 87.7614 26.0173 87.7901 25.9436 87.8106V87.8065ZM12.775 73.2814H12.7668V73.2896C12.8078 73.2814 12.8447 73.2691 12.8816 73.265C12.8488 73.265 12.816 73.2732 12.775 73.2855V73.2814Z" fill="#241F20"/>
<path d="M62.6945 44.1451V72.7568C62.465 72.351 62.174 71.9658 61.8256 71.6215L39.5912 49.3871C37.4477 47.2435 33.9681 47.2435 31.8245 49.3871L18.0248 63.1867C17.1109 64.1007 15.8895 64.6089 14.5985 64.6089C13.3075 64.6089 12.0861 64.1007 11.1721 63.1867C9.29093 61.2973 9.29093 58.2234 11.1721 56.334L23.3652 44.1492H62.6945V44.1451Z" fill="#199D48"/>
<path d="M24.8774 85.6178C24.8692 86.5031 24.5782 87.3351 24.0495 88.0319C24.0413 88.0401 24.0413 88.0483 24.0331 88.0483C23.8773 88.1712 23.7257 88.2983 23.5823 88.4458L20.3813 91.6017C20.2174 91.7615 20.078 91.9213 19.9797 92.0443C18.3566 93.2452 16.082 93.073 14.6516 91.614C13.2417 90.1795 13.0778 87.9991 14.2581 86.3556C14.2745 86.3269 14.2909 86.3023 14.3114 86.2695C14.4057 86.1261 14.545 85.9621 14.7008 85.8105L17.9017 82.6628C18.0575 82.5112 18.2173 82.3718 18.3894 82.2612C18.4222 82.2366 18.4427 82.2243 18.4755 82.2079C20.0821 81.1013 22.3076 81.3103 23.697 82.712C24.4675 83.503 24.8897 84.5276 24.8774 85.6178Z" fill="#199D48"/>
<path d="M24.033 88.0482C24.033 88.0482 24.0084 88.0851 23.9962 88.1015C23.988 88.1097 23.9798 88.1261 23.9798 88.1302C23.8732 88.2532 23.7625 88.3802 23.6478 88.5032L20.4468 91.659C20.3403 91.7656 20.2132 91.8722 20.0657 91.9787C20.0329 92.0033 20.0124 92.0238 19.9796 92.0402C20.0821 91.9173 20.2214 91.7574 20.3813 91.5976L23.5822 88.4417C23.7216 88.2983 23.8773 88.1671 24.033 88.0442V88.0482Z" fill="#199D48"/>
<path d="M19.5043 80.0971V80.1053C19.5658 80.0889 19.6354 80.0766 19.6969 80.0685C19.6272 80.0766 19.5658 80.0889 19.5043 80.0971Z" fill="#199D48"/>
<path d="M31.8529 92.5566C31.8529 93.4419 31.5701 94.278 31.0454 94.9748C31.0373 94.983 31.0372 94.9912 31.0291 94.9912C30.8774 95.1141 30.7217 95.2453 30.5823 95.3887L27.4101 98.5692C27.2502 98.729 27.1109 98.8929 27.0125 99.0159C25.3977 100.229 23.123 100.077 21.6803 98.6306C20.2582 97.2085 20.0737 95.028 21.2418 93.3763C21.2582 93.3436 21.2746 93.3231 21.2951 93.2903C21.3853 93.1427 21.5246 92.9829 21.6803 92.8313L24.8526 89.659C25.0042 89.5074 25.1682 89.368 25.3362 89.2532C25.3649 89.2287 25.3895 89.2164 25.4223 89.2C27.0207 88.077 29.2503 88.2696 30.6479 89.659C31.4225 90.4418 31.8529 91.4664 31.8529 92.5566Z" fill="#199D48"/>
<path d="M31.0291 94.9911C31.0291 94.9911 31.0045 95.028 30.9922 95.0444C30.984 95.0526 30.9758 95.069 30.9758 95.0731C30.8692 95.196 30.7627 95.3272 30.6438 95.4502L27.4716 98.6306C27.365 98.7372 27.242 98.8437 27.0945 98.9544C27.0658 98.979 27.0412 98.9995 27.0084 99.0159C27.1068 98.8929 27.2461 98.7331 27.406 98.5691L30.5782 95.3887C30.7176 95.2411 30.8692 95.1141 31.025 94.9911H31.0291Z" fill="#199D48"/>
<path d="M26.4346 87.0769V87.0851C26.496 87.0687 26.5657 87.0523 26.6272 87.0482C26.5575 87.0564 26.496 87.0728 26.4346 87.0769Z" fill="#199D48"/>
<path d="M12.2708 75.0602C12.1479 75.1217 12.0331 75.1831 11.9183 75.2528V75.2446C12.0331 75.1749 12.1479 75.1135 12.2708 75.0602Z" fill="#199D48"/>
<path d="M18.0702 78.7816C18.0702 79.6177 17.8243 80.4169 17.3325 81.1178C17.3325 81.126 17.3243 81.126 17.3243 81.126C17.3079 81.1547 17.2874 81.1874 17.2628 81.2161C17.1645 81.3637 17.0333 81.5235 16.8694 81.6752L13.6889 84.8474C13.5414 84.9991 13.3815 85.1302 13.2217 85.2532C13.193 85.2778 13.1602 85.2982 13.1315 85.3146C11.5249 86.4294 9.29941 86.245 7.89772 84.8474C6.59849 83.5482 6.33618 81.5071 7.25425 79.9169C7.27884 79.8718 7.30754 79.8186 7.34033 79.7694C7.50017 79.5153 7.6846 79.2775 7.90182 79.0562L11.0823 75.884C11.2913 75.6749 11.529 75.4905 11.7954 75.3225C11.8323 75.2979 11.8733 75.2692 11.9184 75.2528C12.0331 75.1831 12.1479 75.1216 12.2708 75.0602C12.3938 75.0069 12.5167 74.9618 12.6397 74.9126C12.8938 74.8225 13.1479 74.761 13.4061 74.72C13.5987 74.6954 13.7832 74.6831 13.9758 74.6831C14.2463 74.6831 14.5045 74.7077 14.7668 74.761C14.898 74.7856 15.0209 74.8225 15.1521 74.8512C15.275 74.888 15.4062 74.9372 15.5291 74.9823C15.898 75.1339 16.2505 75.343 16.5661 75.6053C16.6726 75.6913 16.7751 75.7815 16.8735 75.8799C17.6481 76.6545 18.0702 77.6873 18.0702 78.7775V78.7816Z" fill="#199D48"/>
<path d="M11.9183 75.2446V75.2528C12.0331 75.1831 12.1479 75.1217 12.2708 75.0602C12.1479 75.1135 12.0331 75.1749 11.9183 75.2446ZM11.9183 75.2446V75.2528C12.0331 75.1831 12.1479 75.1217 12.2708 75.0602C12.1479 75.1135 12.0331 75.1749 11.9183 75.2446ZM11.9183 75.2446V75.2528C12.0331 75.1831 12.1479 75.1217 12.2708 75.0602C12.1479 75.1135 12.0331 75.1749 11.9183 75.2446ZM11.9183 75.2446V75.2528C12.0331 75.1831 12.1479 75.1217 12.2708 75.0602C12.1479 75.1135 12.0331 75.1749 11.9183 75.2446ZM11.9183 75.2446V75.2528C12.0331 75.1831 12.1479 75.1217 12.2708 75.0602C12.1479 75.1135 12.0331 75.1749 11.9183 75.2446Z" fill="#199D48"/>
<path d="M11.3651 72.0724C11.3651 72.765 11.1971 73.4249 10.8733 74.0233C10.8487 74.056 10.8282 74.0929 10.8036 74.1298C10.779 74.1749 10.7585 74.2159 10.7257 74.261C10.7257 74.2692 10.7175 74.2692 10.7175 74.2774C10.5782 74.5069 10.3855 74.7446 10.1642 74.97L6.99198 78.1505C6.76247 78.38 6.52476 78.5726 6.27885 78.7283C6.23376 78.7611 6.18867 78.7816 6.13949 78.8144C4.54926 79.7202 2.49592 79.4538 1.20079 78.1546C0.434365 77.3799 0.00402832 76.3471 0.00402832 75.2487V75.1586C0.0286194 74.1052 0.458956 73.1052 1.20079 72.3552L4.37303 69.1829C4.57386 68.9821 4.77879 68.814 5.0042 68.6665C5.22552 68.5149 5.45914 68.3919 5.70505 68.2976C5.8198 68.2443 5.94276 68.1993 6.06572 68.1665C6.1026 68.1501 6.1436 68.1419 6.18868 68.1296C6.27885 68.1009 6.3813 68.0763 6.48786 68.0599C6.52475 68.0517 6.56574 68.0435 6.61083 68.0353C6.82395 67.9985 7.04117 67.9821 7.26249 67.9821C7.27068 67.9821 7.27888 67.9903 7.28708 67.9821C7.41823 67.9821 7.54938 67.9903 7.68053 68.0066C7.80349 68.023 7.92644 68.0353 8.04939 68.0599C8.18055 68.0845 8.3117 68.1132 8.43466 68.1501C8.68876 68.228 8.94287 68.3263 9.18059 68.4575C9.29535 68.5189 9.4183 68.5886 9.52486 68.6665C9.61503 68.728 9.7093 68.7895 9.79947 68.8673C9.92242 68.9575 10.0536 69.0764 10.1683 69.1911C10.9429 69.9534 11.3651 70.9822 11.3651 72.0806V72.0724Z" fill="#199D48"/>
<path d="M75.1254 51.5961V25.5091H81.7199L88.6505 35.7922L95.6179 25.5091H102.212V51.5961H96.2122V34.8291L88.6833 45.8582L81.1174 34.8291V51.5961H75.1172H75.1254Z" fill="#241F20"/>
<path d="M109.52 30.5789C108.651 30.5789 107.885 30.251 107.229 29.5912C106.569 28.9313 106.241 28.169 106.241 27.3001C106.241 26.382 106.569 25.6033 107.229 24.9722C107.889 24.3369 108.651 24.0213 109.52 24.0213C110.389 24.0213 111.184 24.3369 111.832 24.9722C112.479 25.6074 112.799 26.382 112.799 27.3001C112.799 28.169 112.475 28.9354 111.832 29.5912C111.184 30.251 110.418 30.5789 109.52 30.5789ZM106.61 51.5961V32.9643H112.422V51.5961H106.61Z" fill="#241F20"/>
<path d="M116.188 51.5961V25.5091H122V51.5961H116.188Z" fill="#241F20"/>
<path d="M134.41 51.5961V25.5091H140.374V51.5961H134.41ZM137.874 46.0795L137.574 38.0669L149.128 25.5091H156.952L137.874 46.0795ZM149.911 51.5961L139.665 38.3292L144.099 34.7881L157.329 51.5961H149.915H149.911Z" fill="#241F20"/>
<path d="M166.645 52.0428C164.707 52.0428 162.993 51.6248 161.502 50.7928C160.01 49.9608 158.842 48.8132 157.997 47.3459C157.153 45.8787 156.731 44.1901 156.731 42.2761C156.731 40.3621 157.161 38.6366 158.018 37.1693C158.874 35.7021 160.051 34.5627 161.538 33.743C163.026 32.9233 164.756 32.5134 166.719 32.5134C168.481 32.5134 170.071 32.9356 171.49 33.7799C172.904 34.6242 174.031 35.8783 174.863 37.5423C175.695 39.2063 176.113 41.2801 176.113 43.7638H162.1L162.731 43.0548C162.731 43.8991 162.903 44.645 163.252 45.2926C163.6 45.9402 164.084 46.4279 164.707 46.7639C165.33 47.1 166.022 47.2681 166.793 47.2681C167.711 47.2681 168.489 47.0631 169.121 46.6533C169.752 46.2434 170.194 45.727 170.444 45.1082L175.588 46.8582C175.092 48.0263 174.387 48.9935 173.481 49.7641C172.576 50.5346 171.539 51.1043 170.371 51.4772C169.203 51.8502 167.961 52.0346 166.645 52.0346V52.0428ZM162.879 40.6408L162.284 39.8948H170.633L170.112 40.6408C170.112 39.7227 169.928 38.9891 169.555 38.444C169.182 37.8989 168.723 37.5054 168.178 37.2718C167.633 37.0341 167.084 36.9193 166.539 36.9193C165.993 36.9193 165.44 37.0382 164.879 37.2718C164.321 37.5095 163.846 37.8989 163.465 38.444C163.079 38.9891 162.887 39.7227 162.887 40.6408H162.879Z" fill="#241F20"/>
<path d="M75.1252 84.1097V58.0267H81.0886V84.1097H75.1252ZM78.5885 78.5972L78.2893 70.5846L89.843 58.0267H97.6671L78.5885 78.5972ZM90.6258 84.1097L80.3795 70.8428L84.8141 67.3017L98.0441 84.1097H90.6299H90.6258Z" fill="#241F20"/>
<path d="M99.9786 84.1097V58.0267H105.79V84.1097H99.9786ZM111.979 74.5724C111.979 73.5806 111.868 72.7896 111.643 72.2076C111.418 71.6256 111.098 71.1953 110.676 70.9207C110.254 70.6461 109.758 70.4985 109.184 70.4739C108.065 70.4493 107.221 70.7526 106.651 71.3879C106.077 72.0191 105.794 72.9822 105.794 74.2773H104.044C104.044 72.3142 104.344 70.6461 104.938 69.2649C105.536 67.8878 106.348 66.8386 107.381 66.1172C108.409 65.3959 109.598 65.0352 110.938 65.0352C112.455 65.0352 113.721 65.3385 114.737 65.9492C115.754 66.5598 116.52 67.482 117.028 68.7239C117.537 69.9657 117.791 71.5559 117.791 73.4945V74.5765H111.979V74.5724ZM111.979 84.1097V74.5683H117.791V84.1097H111.979Z" fill="#241F20"/>
<path d="M126.959 84.5564C124.746 84.5564 123.033 84.0605 121.816 83.0645C120.598 82.0727 119.992 80.6669 119.992 78.8553C119.992 76.8922 120.627 75.429 121.893 74.4577C123.16 73.4904 124.934 73.0027 127.221 73.0027H132.328V76.7282H129.422C128.181 76.7282 127.287 76.9004 126.738 77.2487C126.193 77.5971 125.918 78.0807 125.918 78.7037C125.918 79.1504 126.123 79.5029 126.533 79.7652C126.943 80.0275 127.508 80.1587 128.23 80.1587C128.951 80.1587 129.582 80.0029 130.131 79.6915C130.677 79.38 131.107 78.966 131.418 78.4414C131.73 77.9209 131.886 77.3471 131.886 76.7282H133.341C133.341 79.2119 132.82 81.1382 131.775 82.503C130.73 83.8678 129.127 84.5523 126.967 84.5523L126.959 84.5564ZM132.025 84.1096L131.877 80.0849V74.8306C131.877 73.8388 131.791 72.9658 131.615 72.2199C131.443 71.4739 131.131 70.892 130.685 70.4698C130.238 70.0477 129.566 69.8345 128.672 69.8345C127.976 69.8345 127.369 69.9944 126.848 70.3182C126.328 70.642 125.881 71.0887 125.508 71.6584L120.443 69.9821C120.865 69.064 121.443 68.232 122.176 67.4861C122.91 66.7402 123.812 66.1459 124.877 65.6991C125.947 65.2524 127.189 65.027 128.603 65.027C130.541 65.027 132.181 65.3877 133.521 66.109C134.861 66.8303 135.869 67.8345 136.537 69.1255C137.21 70.4165 137.546 71.9453 137.546 73.7076L137.472 84.1055H132.033L132.025 84.1096Z" fill="#241F20"/>
<path d="M140.71 84.1096V65.4778H146.521V84.1096H140.71ZM144.993 74.4577C144.993 72.4453 145.394 70.769 146.202 69.4288C147.009 68.0886 148.03 67.0803 149.259 66.4123C150.489 65.7401 151.776 65.4081 153.116 65.4081V71.0723C151.972 71.0723 150.898 71.1953 149.894 71.4453C148.89 71.6953 148.075 72.0723 147.456 72.5805C146.833 73.0888 146.525 73.7404 146.525 74.5355L144.997 74.4618L144.993 74.4577Z" fill="#241F20"/>
<path d="M164.108 84.5564C162.169 84.5564 160.456 84.1383 158.964 83.3064C157.473 82.4744 156.304 81.3268 155.46 79.8595C154.616 78.3963 154.194 76.7036 154.194 74.7937C154.194 72.8838 154.624 71.1542 155.481 69.687C156.337 68.2197 157.514 67.0762 159.001 66.2565C160.489 65.4368 162.219 65.027 164.182 65.027C165.944 65.027 167.534 65.4491 168.952 66.2934C170.366 67.1377 171.494 68.3919 172.326 70.0559C173.158 71.7199 173.576 73.7937 173.576 76.2774H159.563L160.194 75.5684C160.194 76.4127 160.366 77.1586 160.714 77.8061C161.063 78.4537 161.546 78.9414 162.169 79.2775C162.792 79.6136 163.485 79.7816 164.256 79.7816C165.174 79.7816 165.952 79.5767 166.584 79.1668C167.215 78.757 167.657 78.2406 167.907 77.6217L173.051 79.3718C172.555 80.5398 171.85 81.5071 170.944 82.2776C170.039 83.0481 169.002 83.6178 167.834 83.9908C166.666 84.3638 165.424 84.5482 164.108 84.5482V84.5564ZM160.346 73.1543L159.751 72.4084H168.1L167.579 73.1543C167.579 72.2363 167.395 71.5026 167.022 70.9575C166.649 70.4124 166.19 70.019 165.645 69.7853C165.1 69.5476 164.551 69.4329 164.006 69.4329C163.46 69.4329 162.907 69.5517 162.346 69.7853C161.788 70.0231 161.313 70.4124 160.932 70.9575C160.546 71.5026 160.354 72.2363 160.354 73.1543H160.346Z" fill="#241F20"/>
<path d="M184.605 84.5564C182.666 84.5564 180.953 84.1383 179.461 83.3064C177.969 82.4744 176.801 81.3268 175.957 79.8595C175.113 78.3963 174.69 76.7036 174.69 74.7937C174.69 72.8838 175.121 71.1542 175.977 69.687C176.834 68.2197 178.01 67.0762 179.498 66.2565C180.986 65.4368 182.715 65.027 184.678 65.027C186.441 65.027 188.031 65.4491 189.449 66.2934C190.863 67.1377 191.99 68.3919 192.822 70.0559C193.654 71.7199 194.072 73.7937 194.072 76.2774H180.059L180.691 75.5684C180.691 76.4127 180.863 77.1586 181.211 77.8061C181.56 78.4537 182.043 78.9414 182.666 79.2775C183.289 79.6136 183.982 79.7816 184.752 79.7816C185.67 79.7816 186.449 79.5767 187.08 79.1668C187.711 78.757 188.154 78.2406 188.404 77.6217L193.548 79.3718C193.052 80.5398 192.347 81.5071 191.441 82.2776C190.535 83.0481 189.498 83.6178 188.33 83.9908C187.162 84.3638 185.92 84.5482 184.605 84.5482V84.5564ZM180.842 73.1543L180.248 72.4084H188.597L188.076 73.1543C188.076 72.2363 187.892 71.5026 187.519 70.9575C187.146 70.4124 186.687 70.019 186.142 69.7853C185.597 69.5476 185.047 69.4329 184.502 69.4329C183.957 69.4329 183.404 69.5517 182.842 69.7853C182.285 70.0231 181.81 70.4124 181.428 70.9575C181.043 71.5026 180.851 72.2363 180.851 73.1543H180.842Z" fill="#241F20"/>
<path d="M203.609 84.5564C201.872 84.5564 200.372 84.1629 199.117 83.3842C197.863 82.6014 196.892 81.4784 196.212 80.0111C195.527 78.5439 195.187 76.8061 195.187 74.7937C195.187 72.7814 195.527 71.0108 196.212 69.5558C196.896 68.1009 197.863 66.9861 199.117 66.2033C200.372 65.4204 201.868 65.0311 203.609 65.0311C205.15 65.0311 206.446 65.4245 207.503 66.2033C208.56 66.9861 209.347 68.105 209.868 69.5558C210.388 71.0108 210.651 72.7568 210.651 74.7937C210.651 76.8307 210.388 78.5439 209.868 80.0111C209.347 81.4784 208.556 82.6014 207.503 83.3842C206.446 84.167 205.15 84.5564 203.609 84.5564ZM205.138 79.1914C205.86 79.1914 206.503 79.007 207.077 78.634C207.646 78.2611 208.093 77.7447 208.417 77.0889C208.741 76.429 208.901 75.6667 208.901 74.7978C208.901 73.929 208.741 73.1625 208.417 72.5068C208.093 71.8469 207.646 71.3346 207.077 70.9616C206.503 70.5887 205.847 70.4042 205.101 70.4042C204.355 70.4042 203.696 70.5887 203.126 70.9616C202.556 71.3346 202.101 71.851 201.765 72.5068C201.429 73.1666 201.249 73.929 201.224 74.7978C201.249 75.6667 201.429 76.4331 201.765 77.0889C202.101 77.7488 202.56 78.2611 203.142 78.634C203.724 79.007 204.392 79.1914 205.134 79.1914H205.138ZM209.163 84.1096L208.901 80.6423V58.0226H214.712V84.1055H209.159L209.163 84.1096Z" fill="#241F20"/>
<path d="M227.159 84.5564C225.196 84.5564 223.471 84.1383 221.979 83.3064C220.487 82.4744 219.315 81.3268 218.458 79.8595C217.602 78.3963 217.171 76.7036 217.171 74.7937C217.171 72.8838 217.585 71.1911 218.421 69.7239C219.253 68.2566 220.421 67.109 221.926 66.277C223.43 65.445 225.135 65.027 227.049 65.027C228.963 65.027 230.742 65.445 232.246 66.277C233.75 67.109 234.918 68.2566 235.75 69.7239C236.582 71.1911 237 72.8797 237 74.7937C237 76.7077 236.582 78.3963 235.75 79.8595C234.918 81.3268 233.758 82.4744 232.266 83.3064C230.774 84.1383 229.073 84.5564 227.159 84.5564ZM227.159 79.1914C227.905 79.1914 228.569 79.007 229.155 78.634C229.737 78.2611 230.196 77.7447 230.533 77.0889C230.869 76.429 231.037 75.6667 231.037 74.7978C231.037 73.929 230.869 73.1625 230.533 72.5068C230.196 71.8469 229.729 71.3346 229.135 70.9616C228.541 70.5886 227.856 70.4042 227.086 70.4042C226.315 70.4042 225.631 70.5886 225.036 70.9616C224.442 71.3346 223.975 71.851 223.639 72.5068C223.303 73.1666 223.135 73.929 223.135 74.7978C223.135 75.6667 223.303 76.4331 223.639 77.0889C223.975 77.7488 224.446 78.2611 225.057 78.634C225.663 79.007 226.368 79.1914 227.164 79.1914H227.159Z" fill="#241F20"/>
</svg>
