<svg width="24" height="24" viewBox="0 0 24 24" fill="none" xmlns="http://www.w3.org/2000/svg">
<path d="M18.6406 1.03899e-05H4.96875C4.77398 1.03899e-05 4.58719 0.0773818 4.44947 0.215104C4.31175 0.352826 4.23438 0.539617 4.23438 0.734385V22.707C4.23489 22.8035 4.25439 22.8989 4.29177 22.9878C4.32915 23.0767 4.38367 23.1574 4.45223 23.2252C4.52078 23.293 4.60203 23.3467 4.69132 23.3831C4.78062 23.4195 4.87622 23.438 4.97266 23.4375H18.6445C18.8386 23.4375 19.0248 23.3607 19.1624 23.2238C19.3 23.0869 19.3779 22.9011 19.3789 22.707V0.734385C19.3789 0.637616 19.3598 0.541801 19.3226 0.452447C19.2855 0.363093 19.231 0.281962 19.1624 0.213718C19.0938 0.145474 19.0124 0.0914615 18.9229 0.0547862C18.8333 0.0181109 18.7374 -0.000504339 18.6406 1.03899e-05ZM8.82422 18.8438C8.82422 18.8833 8.81644 18.9224 8.80132 18.9589C8.78621 18.9954 8.76405 19.0285 8.73612 19.0564C8.70819 19.0844 8.67503 19.1065 8.63854 19.1216C8.60205 19.1368 8.56294 19.1445 8.52344 19.1445H7.71875C7.67911 19.1451 7.63976 19.1376 7.60303 19.1227C7.5663 19.1078 7.53293 19.0857 7.5049 19.0576C7.47686 19.0296 7.45472 18.9962 7.43979 18.9595C7.42486 18.9228 7.41744 18.8834 7.41797 18.8438V18.0352C7.41797 17.9958 7.42577 17.9569 7.44093 17.9206C7.4561 17.8844 7.47831 17.8515 7.5063 17.8239C7.53428 17.7962 7.56747 17.7744 7.60394 17.7598C7.64041 17.7451 7.67944 17.7378 7.71875 17.7383H8.52344C8.60254 17.7383 8.67846 17.7694 8.73475 17.825C8.79105 17.8806 8.82319 17.9561 8.82422 18.0352V18.8438ZM8.82422 15.8359C8.82321 15.9154 8.79119 15.9913 8.735 16.0475C8.67881 16.1037 8.60289 16.1357 8.52344 16.1367H7.71875C7.63898 16.1367 7.56247 16.105 7.50606 16.0486C7.44966 15.9922 7.41797 15.9157 7.41797 15.8359V15.0274C7.41797 14.988 7.42577 14.9491 7.44093 14.9128C7.4561 14.8766 7.47831 14.8437 7.5063 14.816C7.53428 14.7884 7.56747 14.7666 7.60394 14.7519C7.64041 14.7373 7.67944 14.73 7.71875 14.7305H8.52344C8.56275 14.73 8.60178 14.7373 8.63825 14.7519C8.67472 14.7666 8.70791 14.7884 8.73589 14.816C8.76387 14.8437 8.78609 14.8766 8.80125 14.9128C8.81642 14.9491 8.82422 14.988 8.82422 15.0274V15.8359ZM8.82422 12.8242C8.82422 12.904 8.79253 12.9805 8.73612 13.0369C8.67971 13.0933 8.60321 13.125 8.52344 13.125H7.71875C7.67911 13.1255 7.63976 13.1181 7.60303 13.1032C7.5663 13.0883 7.53293 13.0661 7.5049 13.0381C7.47686 13.01 7.45472 12.9767 7.43979 12.94C7.42486 12.9032 7.41744 12.8639 7.41797 12.8242V12.0195C7.41797 11.9398 7.44966 11.8633 7.50606 11.8069C7.56247 11.7505 7.63898 11.7188 7.71875 11.7188H8.52344C8.60289 11.7198 8.67881 11.7518 8.735 11.808C8.79119 11.8642 8.82321 11.9401 8.82422 12.0195V12.8242ZM12.5898 18.8438C12.5898 18.8827 12.5822 18.9214 12.5672 18.9574C12.5523 18.9934 12.5305 19.0261 12.5029 19.0537C12.4753 19.0812 12.4426 19.1031 12.4066 19.118C12.3706 19.133 12.332 19.1406 12.293 19.1406H11.4844C11.4447 19.1412 11.4054 19.1337 11.3687 19.1188C11.3319 19.1039 11.2986 19.0817 11.2705 19.0537C11.2425 19.0257 11.2203 18.9923 11.2054 18.9556C11.1905 18.9188 11.1831 18.8795 11.1836 18.8399V18.0352C11.1836 17.9958 11.1914 17.9569 11.2066 17.9206C11.2217 17.8844 11.2439 17.8515 11.2719 17.8239C11.2999 17.7962 11.3331 17.7744 11.3696 17.7598C11.406 17.7451 11.4451 17.7378 11.4844 17.7383H12.293C12.3717 17.7383 12.4472 17.7696 12.5029 17.8252C12.5586 17.8809 12.5898 17.9564 12.5898 18.0352V18.8438ZM12.5898 15.8359C12.5899 15.915 12.5587 15.991 12.5031 16.0473C12.4476 16.1036 12.3721 16.1357 12.293 16.1367H11.4844C11.4046 16.1367 11.3281 16.105 11.2717 16.0486C11.2153 15.9922 11.1836 15.9157 11.1836 15.8359V15.0274C11.1836 14.988 11.1914 14.9491 11.2066 14.9128C11.2217 14.8766 11.2439 14.8437 11.2719 14.816C11.2999 14.7884 11.3331 14.7666 11.3696 14.7519C11.406 14.7373 11.4451 14.73 11.4844 14.7305H12.293C12.3321 14.73 12.3709 14.7373 12.4072 14.752C12.4435 14.7667 12.4764 14.7886 12.5041 14.8163C12.5317 14.8439 12.5536 14.8769 12.5683 14.9131C12.583 14.9494 12.5904 14.9882 12.5898 15.0274V15.8359ZM12.5898 12.8242C12.5904 12.8635 12.5831 12.9026 12.5684 12.939C12.5537 12.9755 12.5319 13.0087 12.5043 13.0367C12.4767 13.0647 12.4438 13.0869 12.4075 13.102C12.3712 13.1172 12.3323 13.125 12.293 13.125H11.4844C11.4447 13.1255 11.4054 13.1181 11.3687 13.1032C11.3319 13.0883 11.2986 13.0661 11.2705 13.0381C11.2425 13.01 11.2203 12.9767 11.2054 12.94C11.1905 12.9032 11.1831 12.8639 11.1836 12.8242V12.0195C11.1836 11.9398 11.2153 11.8633 11.2717 11.8069C11.3281 11.7505 11.4046 11.7188 11.4844 11.7188H12.293C12.3721 11.7198 12.4476 11.7519 12.5031 11.8082C12.5587 11.8645 12.5899 11.9404 12.5898 12.0195V12.8242ZM12.5352 6.88282V9.05079C12.5425 9.15147 12.529 9.25259 12.4956 9.34783C12.4621 9.44306 12.4093 9.53038 12.3406 9.60432C12.2719 9.67825 12.1886 9.73723 12.0961 9.77755C12.0035 9.81788 11.9037 9.83869 11.8027 9.83869C11.7018 9.83869 11.6019 9.81788 11.5094 9.77755C11.4168 9.73723 11.3336 9.67825 11.2649 9.60432C11.1961 9.53038 11.1434 9.44306 11.1099 9.34783C11.0764 9.25259 11.063 9.15147 11.0703 9.05079V6.88282H8.89844C8.79776 6.89018 8.69664 6.8767 8.6014 6.84323C8.50616 6.80975 8.41885 6.75701 8.34491 6.68827C8.27098 6.61954 8.212 6.53631 8.17168 6.44376C8.13135 6.35122 8.11054 6.25135 8.11054 6.1504C8.11054 6.04945 8.13135 5.94959 8.17168 5.85704C8.212 5.7645 8.27098 5.68126 8.34491 5.61253C8.41885 5.5438 8.50616 5.49105 8.6014 5.45757C8.69664 5.4241 8.79776 5.41062 8.89844 5.41798H11.0703V3.2461C11.063 3.14542 11.0764 3.04431 11.1099 2.94907C11.1434 2.85383 11.1961 2.76652 11.2649 2.69258C11.3336 2.61864 11.4168 2.55967 11.5094 2.51934C11.6019 2.47902 11.7018 2.4582 11.8027 2.4582C11.9037 2.4582 12.0035 2.47902 12.0961 2.51934C12.1886 2.55967 12.2719 2.61864 12.3406 2.69258C12.4093 2.76652 12.4621 2.85383 12.4956 2.94907C12.529 3.04431 12.5425 3.14542 12.5352 3.2461V5.41798H14.707C14.892 5.4315 15.0651 5.51453 15.1914 5.6504C15.3177 5.78627 15.3879 5.9649 15.3879 6.1504C15.3879 6.3359 15.3177 6.51453 15.1914 6.6504C15.0651 6.78627 14.892 6.8693 14.707 6.88282H12.5352ZM16.1992 18.8438C16.1992 18.8833 16.1914 18.9224 16.1763 18.9589C16.1612 18.9954 16.1391 19.0285 16.1111 19.0564C16.0832 19.0844 16.05 19.1065 16.0135 19.1216C15.977 19.1368 15.9379 19.1445 15.8984 19.1445H15.0898C15.0503 19.1445 15.0112 19.1368 14.9747 19.1216C14.9382 19.1065 14.9051 19.0844 14.8772 19.0564C14.8492 19.0285 14.8271 18.9954 14.812 18.9589C14.7968 18.9224 14.7891 18.8833 14.7891 18.8438V18.0352C14.7901 17.9561 14.8222 17.8806 14.8785 17.825C14.9348 17.7694 15.0107 17.7383 15.0898 17.7383H15.8984C15.9775 17.7383 16.0535 17.7694 16.1098 17.825C16.166 17.8806 16.1982 17.9561 16.1992 18.0352V18.8438ZM16.1992 15.8359C16.1982 15.9154 16.1662 15.9913 16.11 16.0475C16.0538 16.1037 15.9779 16.1357 15.8984 16.1367H15.0898C15.0104 16.1357 14.9345 16.1037 14.8783 16.0475C14.8221 15.9913 14.7901 15.9154 14.7891 15.8359V15.0274C14.7891 14.988 14.7969 14.9491 14.812 14.9128C14.8272 14.8766 14.8494 14.8437 14.8774 14.816C14.9054 14.7884 14.9386 14.7666 14.975 14.7519C15.0115 14.7373 15.0505 14.73 15.0898 14.7305H15.8984C15.9378 14.73 15.9768 14.7373 16.0132 14.7519C16.0497 14.7666 16.0829 14.7884 16.1109 14.816C16.1389 14.8437 16.1611 14.8766 16.1763 14.9128C16.1914 14.9491 16.1992 14.988 16.1992 15.0274V15.8359ZM16.1992 12.8242C16.1992 12.904 16.1675 12.9805 16.1111 13.0369C16.0547 13.0933 15.9782 13.125 15.8984 13.125H15.0898C15.0101 13.125 14.9336 13.0933 14.8772 13.0369C14.8208 12.9805 14.7891 12.904 14.7891 12.8242V12.0195C14.7901 11.9401 14.8221 11.8642 14.8783 11.808C14.9345 11.7518 15.0104 11.7198 15.0898 11.7188H15.8984C15.9779 11.7198 16.0538 11.7518 16.11 11.808C16.1662 11.8642 16.1982 11.9401 16.1992 12.0195V12.8242ZM23.6211 7.19532V22.707C23.6211 22.8036 23.6019 22.8993 23.5648 22.9884C23.5276 23.0775 23.473 23.1584 23.4044 23.2263C23.3357 23.2943 23.2543 23.3479 23.1648 23.3842C23.0752 23.4204 22.9794 23.4385 22.8828 23.4375H19.9102C20.0388 23.2156 20.1062 22.9635 20.1055 22.707V6.46485H22.8828C22.9794 6.46382 23.0752 6.48195 23.1648 6.5182C23.2543 6.55445 23.3357 6.60809 23.4044 6.67602C23.473 6.74396 23.5276 6.82483 23.5648 6.91397C23.6019 7.00311 23.6211 7.09874 23.6211 7.19532ZM3.50781 22.707C3.50594 22.9632 3.57199 23.2152 3.69922 23.4375H0.730469C0.536736 23.4375 0.350939 23.3605 0.213949 23.2236C0.0769599 23.0866 0 22.9008 0 22.707V7.19532C0 7.00159 0.0769599 6.81579 0.213949 6.6788C0.350939 6.54181 0.536736 6.46485 0.730469 6.46485H3.50781V22.707Z" fill="black"/>
</svg>
