<svg width="25" height="25" viewBox="0 0 25 25" fill="none" xmlns="http://www.w3.org/2000/svg">
<path d="M17.1208 10.7576L11.6663 9.09091C10.7193 8.75 10.0753 7.95454 9.96171 7.00757C9.73443 5.34091 11.136 3.90151 12.8405 4.09091C14.1663 4.24242 15.1132 5.30303 15.1132 6.66666C15.1132 7.68939 15.9466 8.52272 16.9693 8.52272C17.992 8.52272 18.8253 7.72727 18.8253 6.70454C18.8253 3.25757 16.0602 0.378784 12.4996 0.378784C9.0905 0.378784 6.17383 3.33333 6.17383 6.85606V22.197C6.17383 23.5227 7.27231 24.6212 8.59807 24.6212H16.4011C17.7269 24.6212 18.8253 23.5227 18.8253 22.197V13.0303C18.8253 11.9697 18.1435 11.0606 17.1208 10.7576ZM15.7572 17.5379L12.1966 21.0985C11.8935 21.4394 11.3632 21.4394 11.0223 21.0985L9.24201 19.3182C8.93898 19.0151 8.93898 18.5606 9.24201 18.2576C9.39353 18.1061 9.58292 18.0303 9.77231 18.0303C9.96171 18.0303 10.1511 18.1061 10.3026 18.2576L11.5905 19.5455L14.6966 16.4394C14.9996 16.1364 15.492 16.1364 15.7572 16.4394C15.9087 16.5909 15.9844 16.7803 15.9844 16.9697C15.9844 17.1591 15.9087 17.3864 15.7572 17.5379Z" fill="black"/>
</svg>
