<svg width="80" height="71" viewBox="0 0 80 71" fill="none" xmlns="http://www.w3.org/2000/svg">
<path d="M40.242 70.4851C28.5229 70.4851 16.8038 70.4851 5.08474 70.4851C4.51227 70.4851 3.9324 70.4851 3.35747 70.4259C0.423584 70.152 -0.755893 68.1755 0.495142 65.5032C1.58085 63.1961 2.76526 60.9481 3.91513 58.6657C9.34369 47.9188 14.7722 37.1735 20.2008 26.4299C20.3686 26.1018 20.5438 25.7736 20.7387 25.4602C22.1057 23.269 24.3265 22.9606 26.076 24.8507C27.3097 26.1733 28.3535 27.6588 29.454 29.0924C35.0471 36.4012 40.6401 43.7133 46.2332 51.0287C48.676 54.2118 51.753 54.3845 54.6228 51.5222C56.0465 50.1009 57.4382 48.6426 58.8792 47.2336C61.4775 44.6921 64.4262 44.8451 66.5483 47.8086C70.8073 53.7553 74.9601 59.781 79.1327 65.787C79.4588 66.2581 79.7086 66.7778 79.8729 67.3267C80.2776 68.706 79.7051 69.8164 78.3061 70.1841C77.4288 70.3941 76.5282 70.4911 75.6263 70.4728C63.8381 70.4925 52.0434 70.4966 40.242 70.4851Z" fill="#D4D2E3"/>
<path d="M66.5236 11.5977C66.5206 13.8915 65.8366 16.1328 64.5582 18.0375C63.2799 19.9421 61.4648 21.4242 59.3431 22.296C57.2213 23.1678 54.8885 23.39 52.6404 22.9343C50.3922 22.4787 48.33 21.3658 46.7151 19.7367C45.1003 18.1076 44.0055 16.0357 43.5696 13.7837C43.1336 11.5316 43.3762 9.20086 44.2666 7.08685C45.1569 4.97285 46.6549 3.17081 48.5707 1.9092C50.4864 0.647588 52.7336 -0.0167797 55.0274 0.000322047C58.0818 0.039137 60.9987 1.27664 63.1492 3.44605C65.2997 5.61547 66.5115 8.54305 66.5236 11.5977Z" fill="#D4D2E3"/>
</svg>
