<svg width="136" height="57" viewBox="0 0 136 57" fill="none" xmlns="http://www.w3.org/2000/svg">
<path d="M7.2081 15.2236C8.90708 15.2236 10.2844 13.8556 10.2844 12.1681C10.2844 10.4806 8.90708 9.11267 7.2081 9.11267C5.50913 9.11267 4.13184 10.4806 4.13184 12.1681C4.13184 13.8556 5.50913 15.2236 7.2081 15.2236Z" fill="#602A7F"/>
<path d="M28.787 11.3435C30.8613 11.3435 32.5429 9.67331 32.5429 7.61298C32.5429 5.55266 30.8613 3.88245 28.787 3.88245C26.7126 3.88245 25.031 5.55266 25.031 7.61298C25.031 9.67331 26.7126 11.3435 28.787 11.3435Z" fill="#FBAD1B"/>
<path d="M9.33464 16.1907C9.66391 16.1907 9.98141 16.2234 10.2919 16.2818V24.3385H0V21.2013C0 18.4355 2.26016 16.193 5.04479 16.193H9.33464V16.1907Z" fill="#602A7F"/>
<path d="M35.9766 17.5852V24.3362H25.8211V13.9622C25.8211 13.516 25.7694 13.0838 25.6659 12.6704C25.981 12.6073 26.3056 12.5746 26.6396 12.5746H30.9318C33.7164 12.5746 35.9766 14.8194 35.9766 17.5852Z" fill="#FBAD1B"/>
<path d="M22.0746 3.98984C22.0746 6.19032 20.273 7.98201 18.0576 7.98201C15.8421 7.98201 14.0405 6.19032 14.0405 3.98984C14.0405 1.78936 15.8421 0 18.0576 0C20.273 0 22.0746 1.79169 22.0746 3.98984Z" fill="#EA6C35"/>
<path d="M24.9086 13.9598V24.3035H11.2041V13.9598C11.2041 11.4042 13.2996 9.32288 15.875 9.32288H20.2354C22.4532 9.32288 24.3159 10.8646 24.7886 12.9226C24.8686 13.2543 24.9086 13.6047 24.9086 13.9598Z" fill="#EA6C35"/>
<path d="M14.8898 50.0458C14.9298 50.0318 14.9697 50.0201 15.005 50.0107C14.965 50.0248 14.9298 50.0364 14.8898 50.0505V50.0458Z" fill="#1C4692"/>
<path d="M35.5253 43.0005C35.5488 43.6148 35.323 44.2315 34.8573 44.694C34.4152 45.1309 33.8342 45.3691 33.2157 45.3691C32.5972 45.3691 32.0162 45.1309 31.5788 44.694L29.1563 42.2903L25.4169 38.5832C25.2452 38.4126 24.9676 38.4126 24.7959 38.5832C24.6243 38.7537 24.6243 39.027 24.7959 39.1999L27.7499 42.1338L30.9744 45.3318C31.8798 46.2288 31.8798 47.6888 30.9697 48.5905C30.5346 49.0226 29.9583 49.2585 29.3374 49.2585C28.7165 49.2585 28.1356 49.0226 27.7052 48.5834L21.5221 42.4515C21.4774 42.4141 21.4045 42.3674 21.3457 42.3464C21.1505 42.274 20.9294 42.3394 20.8142 42.5123C20.6966 42.6828 20.7225 42.914 20.8683 43.0659L27.042 49.1978C27.4842 49.6253 27.7217 50.2069 27.7217 50.8213C27.7217 51.4357 27.4842 52.0103 27.042 52.4471C26.6116 52.884 26.0307 53.1175 25.4098 53.1175C24.7889 53.1175 24.2033 52.8816 23.7729 52.4471L17.5992 46.3152C17.4275 46.1447 17.1453 46.1494 16.9736 46.3199C16.7948 46.4904 16.7948 46.7661 16.9736 46.9366L23.1449 53.0685C23.5871 53.5077 23.827 54.0893 23.827 54.699C23.827 55.3087 23.5871 55.8904 23.1449 56.3248C22.7098 56.7617 22.1266 56.9999 21.5033 56.9999C20.8801 56.9999 20.3015 56.7617 19.8711 56.3248L18.2836 54.7481C18.38 54.6336 18.4717 54.5168 18.5517 54.3883C18.594 54.3323 18.6269 54.2739 18.6575 54.2131C18.6834 54.1687 18.7069 54.129 18.7234 54.0893C18.7422 54.0636 18.754 54.0356 18.7657 54.0099C18.801 53.9351 18.8339 53.8557 18.8621 53.774C18.8927 53.6945 18.9186 53.6104 18.9468 53.5263C18.9515 53.5006 18.9609 53.4773 18.9656 53.4539C18.9797 53.3792 19.0009 53.3068 19.0103 53.2297C19.0291 53.1456 19.0362 53.0592 19.0479 52.9727C19.0597 52.8676 19.062 52.7648 19.062 52.655C19.062 51.7907 18.7257 50.9872 18.1166 50.3845C17.4181 49.6907 16.4679 49.373 15.5366 49.4571C15.4613 49.4688 15.3884 49.4758 15.3108 49.4875C15.2261 49.5015 15.1438 49.5132 15.0638 49.5365C15.0874 49.4501 15.1062 49.3613 15.1179 49.2702C15.1297 49.2095 15.1367 49.1464 15.1438 49.0857C15.1556 48.9806 15.1579 48.8778 15.1579 48.7703C15.1579 47.9177 14.8216 47.1094 14.203 46.5044C13.4246 45.7242 12.3074 45.4252 11.2749 45.6331C11.2397 45.6378 11.1997 45.6448 11.1644 45.6518V45.6471C11.1644 45.6471 11.1691 45.6284 11.1715 45.6121C11.1856 45.5467 11.1973 45.4789 11.2138 45.4112C11.2397 45.2453 11.2514 45.0748 11.2514 44.8996C11.2514 44.0423 10.9151 43.2387 10.3083 42.6291C9.68742 42.0077 8.85486 41.69 8.01053 41.6923C7.93762 41.6923 7.86471 41.697 7.78945 41.6993L7.57307 41.7227C7.51663 41.7274 7.45078 41.7414 7.39433 41.7531C7.37552 41.7577 7.352 41.7647 7.32848 41.7671V41.7624H7.33318V41.7507C7.33789 41.725 7.34494 41.7063 7.34729 41.6783C7.35435 41.6293 7.36141 41.5825 7.37317 41.5382V41.5195C7.38022 41.4517 7.38728 41.3746 7.39198 41.2999C7.39904 41.2275 7.40374 41.1527 7.40374 41.0733C7.40374 40.2137 7.06742 39.4054 6.45358 38.8074C6.21604 38.5691 5.95263 38.3706 5.65864 38.2281C5.38817 38.0832 5.09654 37.9851 4.78844 37.9291C4.68496 37.9057 4.58618 37.887 4.48034 37.8847C4.37686 37.873 4.27103 37.866 4.17225 37.866C4.07347 37.866 3.96528 37.873 3.86415 37.8847C3.75831 37.8894 3.65718 37.9081 3.55605 37.9291C3.24796 37.9851 2.95632 38.0856 2.68115 38.2281C2.39187 38.3729 2.12846 38.5691 1.88621 38.8074L0.0658526 40.6154C0.0470375 40.6388 0.0235189 40.6575 0 40.6808V25.1583H12.1593L5.78564 31.4841C4.3651 32.9021 4.3651 35.2053 5.79035 36.6233C6.4771 37.3124 7.40139 37.6931 8.37742 37.6931C9.35346 37.6931 10.273 37.3147 10.9645 36.6233L18.8833 28.7627C19.7676 27.8797 21.2117 27.8797 22.096 28.7627L34.8573 41.433C35.2877 41.8605 35.5135 42.4258 35.5253 42.9958V43.0005Z" fill="#1C4692"/>
<path d="M7.33087 41.767H7.32617V41.7717C7.34969 41.767 7.37085 41.76 7.39202 41.7577C7.37321 41.7577 7.35439 41.7624 7.33087 41.7694V41.767ZM6.19727 42.2529H6.20197C6.20197 42.2529 6.21372 42.2295 6.22078 42.2179C6.21372 42.2295 6.20667 42.2412 6.19727 42.2529ZM14.8875 50.0457V50.0504C14.9298 50.0387 14.9628 50.0247 15.0027 50.013C14.9675 50.02 14.9298 50.0364 14.8875 50.048V50.0457ZM7.33087 41.767H7.32617V41.7717C7.34969 41.767 7.37085 41.76 7.39202 41.7577C7.37321 41.7577 7.35439 41.7624 7.33087 41.7694V41.767Z" fill="white"/>
<path d="M35.9765 25.1608V41.4682C35.8448 41.2369 35.6778 41.0173 35.4779 40.8211L22.7189 28.1485C21.4889 26.9268 19.4922 26.9268 18.2621 28.1485L10.3433 36.0137C9.81883 36.5346 9.11797 36.8243 8.37713 36.8243C7.63629 36.8243 6.93543 36.5346 6.41096 36.0137C5.33144 34.9368 5.33144 33.1848 6.41096 32.1079L13.4078 25.1631H35.9765V25.1608Z" fill="#199D48"/>
<path d="M14.2756 48.7984C14.2709 49.303 14.104 49.7772 13.8006 50.1743C13.7959 50.179 13.7959 50.1837 13.7912 50.1837C13.7018 50.2537 13.6148 50.3262 13.5325 50.4103L11.6956 52.209C11.6015 52.3001 11.5216 52.3912 11.4651 52.4612C10.5338 53.1457 9.2285 53.0476 8.40769 52.216C7.59864 51.3984 7.50457 50.1556 8.18191 49.2189C8.19132 49.2026 8.20072 49.1885 8.21248 49.1699C8.26657 49.0881 8.34654 48.9947 8.43591 48.9082L10.2727 47.1142C10.3621 47.0278 10.4538 46.9483 10.5526 46.8853C10.5714 46.8713 10.5832 46.8643 10.602 46.8549C11.5239 46.2242 12.801 46.3433 13.5983 47.1422C14.0405 47.5931 14.2827 48.1771 14.2756 48.7984Z" fill="#199D48"/>
<path d="M13.7911 50.1836C13.7911 50.1836 13.777 50.2046 13.7699 50.214C13.7652 50.2186 13.7605 50.228 13.7605 50.2303C13.6994 50.3004 13.6359 50.3728 13.57 50.4429L11.7332 52.2416C11.6721 52.3023 11.5991 52.3631 11.5145 52.4238C11.4957 52.4378 11.4839 52.4495 11.4651 52.4588C11.5239 52.3888 11.6038 52.2977 11.6956 52.2066L13.5324 50.4079C13.6124 50.3261 13.7017 50.2514 13.7911 50.1813V50.1836Z" fill="#199D48"/>
<path d="M11.1923 45.652V45.6567C11.2275 45.6472 11.2675 45.6402 11.3028 45.6355C11.2628 45.6402 11.2275 45.6473 11.1923 45.652Z" fill="#199D48"/>
<path d="M18.2784 52.7531C18.2784 53.2577 18.1161 53.7343 17.8151 54.1314C17.8104 54.136 17.8104 54.1407 17.8057 54.1407C17.7187 54.2108 17.6293 54.2855 17.5493 54.3673L15.729 56.18C15.6372 56.2711 15.5573 56.3646 15.5008 56.4346C14.5742 57.1261 13.2689 57.0396 12.441 56.215C11.6249 55.4045 11.5191 54.1617 12.1894 53.2203C12.1988 53.2016 12.2082 53.19 12.2199 53.1713C12.2717 53.0872 12.3517 52.9961 12.441 52.9097L14.2614 51.1016C14.3484 51.0152 14.4425 50.9358 14.5389 50.8703C14.5554 50.8563 14.5695 50.8493 14.5883 50.84C15.5055 50.1999 16.785 50.3097 17.587 51.1016C18.0315 51.5478 18.2784 52.1318 18.2784 52.7531Z" fill="#199D48"/>
<path d="M17.8057 54.1407C17.8057 54.1407 17.7916 54.1618 17.7846 54.1711C17.7799 54.1758 17.7752 54.1851 17.7752 54.1875C17.714 54.2575 17.6529 54.3323 17.5847 54.4024L15.7643 56.2151C15.7032 56.2758 15.6326 56.3366 15.5479 56.3996C15.5315 56.4137 15.5174 56.4253 15.4985 56.4347C15.555 56.3646 15.6349 56.2735 15.7267 56.1801L17.547 54.3673C17.627 54.2832 17.714 54.2108 17.8034 54.1407H17.8057Z" fill="#199D48"/>
<path d="M15.1692 49.6301V49.6348C15.2045 49.6254 15.2445 49.616 15.2797 49.6136C15.2397 49.6184 15.2045 49.6278 15.1692 49.6301Z" fill="#199D48"/>
<path d="M7.0415 42.7809C6.97094 42.8159 6.90509 42.851 6.83923 42.8907V42.886C6.90509 42.8463 6.97094 42.8113 7.0415 42.7809Z" fill="#199D48"/>
<path d="M10.3694 44.902C10.3694 45.3785 10.2283 45.8341 9.9461 46.2335C9.9461 46.2382 9.94139 46.2382 9.94139 46.2382C9.93198 46.2545 9.92022 46.2732 9.90611 46.2896C9.84967 46.3737 9.77441 46.4648 9.68033 46.5512L7.85526 48.3592C7.7706 48.4457 7.67888 48.5204 7.58715 48.5905C7.57069 48.6045 7.55187 48.6162 7.53541 48.6255C6.61347 49.2609 5.33639 49.1558 4.53205 48.3592C3.7865 47.6187 3.63598 46.4554 4.1628 45.5491C4.17691 45.5234 4.19338 45.493 4.21219 45.465C4.30392 45.3202 4.40975 45.1847 4.5344 45.0585L6.35947 43.2505C6.47941 43.1313 6.61582 43.0262 6.76869 42.9305C6.78986 42.9164 6.81338 42.9001 6.83925 42.8907C6.9051 42.851 6.97096 42.816 7.04151 42.7809C7.11207 42.7506 7.18263 42.7249 7.25318 42.6969C7.399 42.6455 7.54481 42.6104 7.69298 42.5871C7.80352 42.5731 7.90936 42.566 8.0199 42.566C8.17512 42.566 8.32329 42.5801 8.47381 42.6104C8.54907 42.6244 8.61963 42.6455 8.69489 42.6618C8.76545 42.6828 8.8407 42.7109 8.91126 42.7366C9.12293 42.823 9.32519 42.9421 9.50629 43.0916C9.56744 43.1407 9.62623 43.1921 9.68268 43.2481C10.1272 43.6896 10.3694 44.2783 10.3694 44.8997V44.902Z" fill="#199D48"/>
<path d="M6.83923 42.886V42.8907C6.90509 42.851 6.97094 42.8159 7.0415 42.7809C6.97094 42.8113 6.90509 42.8463 6.83923 42.886ZM6.83923 42.886V42.8907C6.90509 42.851 6.97094 42.8159 7.0415 42.7809C6.97094 42.8113 6.90509 42.8463 6.83923 42.886ZM6.83923 42.886V42.8907C6.90509 42.851 6.97094 42.8159 7.0415 42.7809C6.97094 42.8113 6.90509 42.8463 6.83923 42.886ZM6.83923 42.886V42.8907C6.90509 42.851 6.97094 42.8159 7.0415 42.7809C6.97094 42.8113 6.90509 42.8463 6.83923 42.886ZM6.83923 42.886V42.8907C6.90509 42.851 6.97094 42.8159 7.0415 42.7809C6.97094 42.8113 6.90509 42.8463 6.83923 42.886Z" fill="#199D48"/>
<path d="M6.52175 41.078C6.52175 41.4728 6.42532 41.8489 6.23952 42.1899C6.22541 42.2086 6.21365 42.2296 6.19954 42.2507C6.18543 42.2764 6.17367 42.2997 6.15485 42.3254C6.15485 42.3301 6.15015 42.3301 6.15015 42.3348C6.07019 42.4656 5.95965 42.6011 5.83264 42.7295L4.01228 44.5422C3.88058 44.6731 3.74417 44.7828 3.60306 44.8716C3.57719 44.8903 3.55131 44.902 3.52309 44.9207C2.61056 45.4369 1.43226 45.2851 0.689067 44.5446C0.249264 44.1031 0.00231934 43.5144 0.00231934 42.8884V42.837C0.0164307 42.2366 0.263375 41.6667 0.689067 41.2392L2.50943 39.4311C2.62467 39.3167 2.74226 39.2209 2.87162 39.1368C2.99862 39.0504 3.13268 38.9803 3.27379 38.9266C3.33964 38.8962 3.4102 38.8705 3.48076 38.8518C3.50192 38.8425 3.52545 38.8378 3.55132 38.8308C3.60306 38.8144 3.66185 38.8004 3.723 38.7911C3.74417 38.7864 3.76769 38.7817 3.79356 38.7771C3.91586 38.756 4.04051 38.7467 4.16751 38.7467C4.17221 38.7467 4.17692 38.7514 4.18162 38.7467C4.25688 38.7467 4.33214 38.7514 4.4074 38.7607C4.47796 38.7701 4.54851 38.7771 4.61907 38.7911C4.69433 38.8051 4.76959 38.8214 4.84015 38.8425C4.98596 38.8869 5.13178 38.9429 5.26819 39.0177C5.33404 39.0527 5.4046 39.0924 5.46575 39.1368C5.51749 39.1718 5.57159 39.2069 5.62333 39.2513C5.69389 39.3027 5.76915 39.3704 5.835 39.4358C6.2795 39.8703 6.52175 40.4566 6.52175 41.0827V41.078Z" fill="#199D48"/>
<path d="M43.1099 29.4074V14.5389H46.8941L50.8712 20.3999L54.8694 14.5389H58.6536V29.4074H55.2104V19.8509L50.89 26.137L46.5484 19.8509V29.4074H43.1052H43.1099Z" fill="#241F20"/>
<path d="M62.847 17.4286C62.3484 17.4286 61.9086 17.2417 61.5323 16.8656C61.1536 16.4895 60.9655 16.055 60.9655 15.5598C60.9655 15.0366 61.1536 14.5927 61.5323 14.233C61.9109 13.8709 62.3484 13.691 62.847 13.691C63.3456 13.691 63.8018 13.8709 64.1734 14.233C64.545 14.5951 64.7285 15.0366 64.7285 15.5598C64.7285 16.055 64.5427 16.4919 64.1734 16.8656C63.8018 17.2417 63.362 17.4286 62.847 17.4286ZM61.1771 29.4074V18.7881H64.5121V29.4074H61.1771Z" fill="#241F20"/>
<path d="M66.6735 29.4074V14.5389H70.0084V29.4074H66.6735Z" fill="#241F20"/>
<path d="M77.13 29.4074V14.5389H80.552V29.4074H77.13ZM79.1174 26.2632L78.9457 21.6963L85.5756 14.5389H90.0654L79.1174 26.2632ZM86.0248 29.4074L80.1451 21.8459L82.6899 19.8276L90.2818 29.4074H86.0272H86.0248Z" fill="#241F20"/>
<path d="M95.6276 29.662C94.5151 29.662 93.532 29.4238 92.676 28.9496C91.8199 28.4754 91.1496 27.8213 90.6651 26.985C90.1806 26.1487 89.9384 25.1863 89.9384 24.0954C89.9384 23.0045 90.1853 22.0211 90.6769 21.1848C91.1684 20.3485 91.8434 19.6991 92.6971 19.2319C93.5509 18.7647 94.5433 18.5311 95.6699 18.5311C96.6812 18.5311 97.5938 18.7717 98.4075 19.2529C99.2189 19.7342 99.8657 20.449 100.343 21.3974C100.821 22.3458 101.06 23.5278 101.06 24.9434H93.0193L93.3815 24.5392C93.3815 25.0205 93.4803 25.4456 93.6802 25.8147C93.8801 26.1838 94.1576 26.4617 94.5151 26.6533C94.8726 26.8448 95.2701 26.9406 95.7122 26.9406C96.2391 26.9406 96.6859 26.8238 97.0481 26.5902C97.4103 26.3566 97.6643 26.0623 97.8078 25.7096L100.759 26.707C100.475 27.3728 100.07 27.9241 99.5505 28.3632C99.0308 28.8024 98.4357 29.1271 97.7654 29.3397C97.0952 29.5522 96.3825 29.6573 95.6276 29.6573V29.662ZM93.4662 23.1634L93.1252 22.7382H97.916L97.6173 23.1634C97.6173 22.6401 97.5114 22.222 97.2974 21.9113C97.0834 21.6006 96.82 21.3763 96.5072 21.2432C96.1944 21.1077 95.8792 21.0423 95.5664 21.0423C95.2536 21.0423 94.9361 21.11 94.6139 21.2432C94.2941 21.3787 94.0212 21.6006 93.8025 21.9113C93.5814 22.222 93.4709 22.6401 93.4709 23.1634H93.4662Z" fill="#241F20"/>
<path d="M43.1099 47.9387V33.0726H46.5319V47.9387H43.1099ZM45.0972 44.7969L44.9255 40.23L51.5555 33.0726H56.0452L45.0972 44.7969ZM52.0047 47.9387L46.125 40.3772L48.6697 38.3589L56.2616 47.9387H52.0071H52.0047Z" fill="#241F20"/>
<path d="M57.3717 47.9387V33.0726H60.7067V47.9387H57.3717ZM64.258 42.5029C64.258 41.9376 64.1945 41.4868 64.0652 41.1551C63.9358 40.8234 63.7524 40.5781 63.5101 40.4216C63.2679 40.2651 62.9833 40.181 62.654 40.167C62.012 40.153 61.5275 40.3258 61.2006 40.6879C60.8713 41.0476 60.709 41.5966 60.709 42.3348H59.7048C59.7048 41.2158 59.8765 40.2651 60.2175 39.4779C60.5609 38.693 61.0265 38.095 61.6192 37.6838C62.2095 37.2727 62.8916 37.0671 63.6606 37.0671C64.5308 37.0671 65.2576 37.24 65.8409 37.5881C66.4241 37.9361 66.8639 38.4617 67.1556 39.1695C67.4472 39.8773 67.593 40.7837 67.593 41.8886V42.5053H64.258V42.5029ZM64.258 47.9387V42.5006H67.593V47.9387H64.258Z" fill="#241F20"/>
<path d="M72.8542 48.1934C71.5841 48.1934 70.601 47.9107 69.9025 47.3431C69.204 46.7778 68.856 45.9766 68.856 44.9441C68.856 43.8251 69.2205 42.9912 69.9472 42.4376C70.674 41.8863 71.6923 41.6083 73.0047 41.6083H75.9351V43.7317H74.2676C73.555 43.7317 73.0423 43.8298 72.7272 44.0284C72.4144 44.2269 72.2568 44.5026 72.2568 44.8576C72.2568 45.1123 72.3744 45.3132 72.6096 45.4627C72.8447 45.6122 73.1693 45.6869 73.5832 45.6869C73.9972 45.6869 74.3594 45.5981 74.6745 45.4206C74.9873 45.2431 75.2343 45.0071 75.413 44.7081C75.5918 44.4115 75.6811 44.0844 75.6811 43.7317H76.516C76.516 45.1473 76.2174 46.2452 75.6176 47.0231C75.0179 47.801 74.0983 48.1911 72.8589 48.1911L72.8542 48.1934ZM75.7611 47.9388L75.6764 45.6448V42.6501C75.6764 42.0848 75.627 41.5873 75.5259 41.1621C75.4271 40.737 75.2484 40.4053 74.992 40.1647C74.7357 39.9241 74.35 39.8026 73.8373 39.8026C73.4374 39.8026 73.0894 39.8937 72.7907 40.0782C72.492 40.2628 72.2356 40.5174 72.0216 40.8421L69.1147 39.8867C69.3569 39.3634 69.6885 38.8892 70.1095 38.4641C70.5305 38.0389 71.0479 37.7002 71.6594 37.4456C72.2732 37.191 72.9859 37.0625 73.7973 37.0625C74.9097 37.0625 75.8505 37.2681 76.6195 37.6792C77.3886 38.0903 77.9672 38.6626 78.3505 39.3985C78.7362 40.1343 78.9291 41.0056 78.9291 42.0101L78.8867 47.9364H75.7658L75.7611 47.9388Z" fill="#241F20"/>
<path d="M80.7448 47.9387V37.3194H84.0797V47.9387H80.7448ZM83.2025 42.4375C83.2025 41.2905 83.4329 40.3351 83.8963 39.5712C84.3596 38.8074 84.9452 38.2327 85.6508 37.852C86.3564 37.4689 87.0948 37.2797 87.8639 37.2797V40.508C87.2077 40.508 86.5915 40.5781 86.0153 40.7206C85.4391 40.8631 84.9711 41.0779 84.6159 41.3676C84.2585 41.6573 84.0821 42.0287 84.0821 42.4819L83.2048 42.4398L83.2025 42.4375Z" fill="#241F20"/>
<path d="M94.1716 48.1934C93.0592 48.1934 92.0761 47.9551 91.22 47.4809C90.3639 47.0067 89.6937 46.3527 89.2092 45.5164C88.7247 44.6824 88.4824 43.7177 88.4824 42.6291C88.4824 41.5406 88.7294 40.5548 89.2209 39.7185C89.7125 38.8822 90.3875 38.2305 91.2412 37.7633C92.0949 37.2961 93.0874 37.0625 94.214 37.0625C95.2253 37.0625 96.1378 37.3031 96.9516 37.7843C97.763 38.2655 98.4098 38.9803 98.8872 39.9287C99.3646 40.8771 99.6045 42.0591 99.6045 43.4747H91.5634L91.9256 43.0706C91.9256 43.5518 92.0244 43.977 92.2243 44.3461C92.4242 44.7151 92.7017 44.9931 93.0592 45.1847C93.4167 45.3762 93.8142 45.472 94.2563 45.472C94.7831 45.472 95.23 45.3552 95.5922 45.1216C95.9544 44.888 96.2084 44.5937 96.3518 44.2409L99.3035 45.2384C99.0189 45.9041 98.6144 46.4554 98.0946 46.8946C97.5748 47.3338 96.9798 47.6585 96.3095 47.871C95.6392 48.0836 94.9266 48.1887 94.1716 48.1887V48.1934ZM92.0126 41.6947L91.6716 41.2696H96.4624L96.1637 41.6947C96.1637 41.1715 96.0579 40.7533 95.8438 40.4427C95.6298 40.132 95.3664 39.9077 95.0536 39.7746C94.7408 39.6391 94.4256 39.5737 94.1128 39.5737C93.8 39.5737 93.4825 39.6414 93.1603 39.7746C92.8405 39.91 92.5677 40.132 92.3489 40.4427C92.1278 40.7533 92.0173 41.1715 92.0173 41.6947H92.0126Z" fill="#241F20"/>
<path d="M105.933 48.1934C104.821 48.1934 103.838 47.9551 102.982 47.4809C102.126 47.0067 101.455 46.3527 100.971 45.5164C100.487 44.6824 100.244 43.7177 100.244 42.6291C100.244 41.5406 100.491 40.5548 100.983 39.7185C101.474 38.8822 102.149 38.2305 103.003 37.7633C103.857 37.2961 104.849 37.0625 105.976 37.0625C106.987 37.0625 107.9 37.3031 108.713 37.7843C109.525 38.2655 110.172 38.9803 110.649 39.9287C111.126 40.8771 111.366 42.0591 111.366 43.4747H103.325L103.687 43.0706C103.687 43.5518 103.786 43.977 103.986 44.3461C104.186 44.7151 104.464 44.9931 104.821 45.1847C105.179 45.3762 105.576 45.472 106.018 45.472C106.545 45.472 106.992 45.3552 107.354 45.1216C107.716 44.888 107.97 44.5937 108.114 44.2409L111.065 45.2384C110.781 45.9041 110.376 46.4554 109.856 46.8946C109.337 47.3338 108.742 47.6585 108.071 47.871C107.401 48.0836 106.688 48.1887 105.933 48.1887V48.1934ZM103.774 41.6947L103.433 41.2696H108.224L107.926 41.6947C107.926 41.1715 107.82 40.7533 107.606 40.4427C107.392 40.132 107.128 39.9077 106.815 39.7746C106.503 39.6391 106.187 39.5737 105.875 39.5737C105.562 39.5737 105.244 39.6414 104.922 39.7746C104.602 39.91 104.329 40.132 104.111 40.4427C103.89 40.7533 103.779 41.1715 103.779 41.6947H103.774Z" fill="#241F20"/>
<path d="M116.839 48.1934C115.842 48.1934 114.981 47.9691 114.262 47.5253C113.542 47.0791 112.984 46.4391 112.594 45.6028C112.201 44.7665 112.006 43.7761 112.006 42.6291C112.006 41.4821 112.201 40.473 112.594 39.6437C112.987 38.8145 113.542 38.1791 114.262 37.7329C114.981 37.2867 115.84 37.0648 116.839 37.0648C117.724 37.0648 118.467 37.2891 119.074 37.7329C119.68 38.1791 120.132 38.8168 120.431 39.6437C120.729 40.473 120.88 41.4681 120.88 42.6291C120.88 43.7901 120.729 44.7665 120.431 45.6028C120.132 46.4391 119.678 47.0791 119.074 47.5253C118.467 47.9715 117.724 48.1934 116.839 48.1934ZM117.716 45.1356C118.13 45.1356 118.5 45.0305 118.829 44.8179C119.156 44.6053 119.412 44.311 119.598 43.9372C119.784 43.5611 119.876 43.1267 119.876 42.6314C119.876 42.1362 119.784 41.6994 119.598 41.3256C119.412 40.9495 119.156 40.6575 118.829 40.445C118.5 40.2324 118.123 40.1273 117.695 40.1273C117.267 40.1273 116.889 40.2324 116.562 40.445C116.235 40.6575 115.974 40.9519 115.781 41.3256C115.588 41.7017 115.485 42.1362 115.47 42.6314C115.485 43.1267 115.588 43.5635 115.781 43.9372C115.974 44.3133 116.237 44.6053 116.571 44.8179C116.905 45.0305 117.288 45.1356 117.714 45.1356H117.716ZM120.026 47.9388L119.876 45.9625V33.0703H123.21V47.9364H120.024L120.026 47.9388Z" fill="#241F20"/>
<path d="M130.353 48.1934C129.227 48.1934 128.236 47.9551 127.38 47.4809C126.524 47.0067 125.852 46.3527 125.36 45.5164C124.869 44.6824 124.622 43.7177 124.622 42.6291C124.622 41.5406 124.859 40.5758 125.339 39.7395C125.816 38.9032 126.487 38.2492 127.35 37.775C128.213 37.3008 129.191 37.0625 130.29 37.0625C131.388 37.0625 132.409 37.3008 133.272 37.775C134.135 38.2492 134.805 38.9032 135.283 39.7395C135.76 40.5758 136 41.5382 136 42.6291C136 43.72 135.76 44.6824 135.283 45.5164C134.805 46.3527 134.14 47.0067 133.284 47.4809C132.428 47.9551 131.451 48.1934 130.353 48.1934ZM130.353 45.1356C130.781 45.1356 131.162 45.0305 131.498 44.8179C131.832 44.6053 132.096 44.311 132.289 43.9373C132.482 43.5612 132.578 43.1267 132.578 42.6315C132.578 42.1362 132.482 41.6994 132.289 41.3256C132.096 40.9496 131.828 40.6576 131.487 40.445C131.146 40.2324 130.753 40.1273 130.311 40.1273C129.869 40.1273 129.476 40.2324 129.135 40.445C128.794 40.6576 128.526 40.9519 128.333 41.3256C128.14 41.7017 128.044 42.1362 128.044 42.6315C128.044 43.1267 128.14 43.5635 128.333 43.9373C128.526 44.3133 128.796 44.6053 129.147 44.8179C129.495 45.0305 129.899 45.1356 130.355 45.1356H130.353Z" fill="#241F20"/>
</svg>
