<svg width="25" height="25" viewBox="0 0 25 25" fill="none" xmlns="http://www.w3.org/2000/svg">
<g clip-path="url(#clip0_1110_13057)">
<path d="M24.2651 13.2864H23.4958C23.1606 8.2396 19.4115 4.10029 14.5363 3.20454C14.6673 2.92334 14.7458 2.52695 14.7458 2.19678C14.7458 0.985449 13.7603 0 12.549 0C11.3376 0 10.3522 0.985449 10.3522 2.19678C10.3522 2.52695 10.4306 2.92334 10.5616 3.20454C5.68647 4.10029 1.83965 8.23955 1.50459 13.2864H0.735205C0.330469 13.2864 0.00292969 13.5944 0.00292969 13.9991C0.00292969 14.4039 0.33042 14.7314 0.735205 14.7314H24.2651C24.6699 14.7314 24.9974 14.4039 24.9974 13.9991C24.9974 13.5944 24.6699 13.2864 24.2651 13.2864ZM12.549 3.01523C12.145 3.01523 11.8167 2.60083 11.8167 2.19678C11.8167 1.79272 12.145 1.4645 12.549 1.4645C12.953 1.4645 13.2812 1.79272 13.2812 2.19678C13.2812 2.60083 12.953 3.01523 12.549 3.01523ZM2.19976 17.6604C1.78965 17.6604 1.46748 17.9826 1.46748 18.3927V24.2622C1.46748 24.6722 1.78965 24.9944 2.19976 24.9944H4.39653V17.6604H2.19976ZM22.7147 17.0335C22.1427 16.4614 21.216 16.4614 20.6439 17.0334L16.4506 21.2072C15.9252 21.7326 15.234 22.0247 14.4961 22.0539H12.4905C12.0889 22.0539 11.7582 21.7551 11.7582 21.3216C11.7582 20.8881 12.0888 20.5894 12.4905 20.5894H14.7458C15.5513 20.5894 16.2103 19.9303 16.2103 19.1249C16.2103 18.3194 15.5513 17.6799 14.7458 17.6799H13.2813C13.0243 17.6799 12.8305 17.6891 12.6223 17.5042C12.3626 17.2769 12.0805 16.9934 11.8168 16.8256C10.3531 15.7924 8.23643 15.5416 6.47124 16.4639C6.28721 16.5601 6.13306 16.7049 6.02549 16.8826C5.91793 17.0602 5.86107 17.264 5.86108 17.4716V24.9944C15.1754 25.0069 14.3231 24.9943 14.379 24.9944C15.9436 24.9944 17.4152 24.3852 18.5215 23.2782L22.7148 19.0849C23.2869 18.5128 23.2869 17.6056 22.7147 17.0335Z" fill="black"/>
</g>
<defs>
<clipPath id="clip0_1110_13057">
<rect width="25" height="25" fill="white"/>
</clipPath>
</defs>
</svg>
