<svg width="25" height="25" viewBox="0 0 25 25" fill="none" xmlns="http://www.w3.org/2000/svg">
<path d="M10.6249 12.4999H14.3749C16.5356 12.4999 17.5001 11.5363 17.5001 9.37499V4.50896C17.1 4.30736 16.6813 4.14502 16.2499 4.02422V3.75C16.2499 1.67883 14.5711 0 12.4999 0C10.429 0 8.74992 1.67883 8.74992 3.75V4.02422C8.3186 4.14506 7.90001 4.3074 7.5 4.50896V9.37499C7.5 11.5363 8.46428 12.4999 10.6249 12.4999ZM10.0001 3.75C10.0001 2.36935 11.1193 1.24992 12.4999 1.24992C13.8807 1.24992 15 2.36935 15 3.75V3.7882C14.7933 3.76898 14.5866 3.75 14.3749 3.75H10.6249C10.4134 3.75 10.2066 3.76875 10.0001 3.7882V3.75Z" fill="#1C4692"/>
<path d="M18.75 5.32605V9.37499C18.75 12.2369 17.2375 13.7501 14.3749 13.7501H10.6249C7.76249 13.7501 6.25007 12.2369 6.25007 9.37499V5.32605C5.46817 5.97008 4.8385 6.77919 4.40626 7.69533C3.97401 8.61147 3.7499 9.61192 3.75 10.6249V21.8749C3.75181 23.6002 5.1498 24.9982 6.87492 25.0001H18.1249C19.8502 24.9982 21.2482 23.6003 21.2501 21.8749V10.6249C21.2502 9.61192 21.026 8.61147 20.5938 7.69533C20.1616 6.77919 19.5319 5.97008 18.75 5.32605ZM15.6251 19.9999H15V20.625C15 20.9701 14.7201 21.2501 14.3749 21.2501C14.0297 21.2501 13.7501 20.9702 13.7501 20.625V19.9999H9.37499C9.02988 19.9999 8.74992 19.7202 8.74992 19.3751C8.74992 19.0299 9.02982 18.75 9.37499 18.75H15.6251C15.9702 18.75 16.2499 19.0299 16.2499 19.3751C16.2499 19.7202 15.9702 19.9999 15.6251 19.9999ZM23.1251 15H22.5V22.4368C23.9539 22.1381 24.998 20.8594 25.0001 19.3751V16.875C24.9989 15.84 24.1601 15.0012 23.1251 15ZM0 16.875V19.3751C0.0018164 20.8594 1.04601 22.1381 2.50008 22.4368V15H1.875C0.839999 15.0012 0.00117187 15.84 0 16.875Z" fill="#1C4692"/>
</svg>
