<svg width="14" height="14" viewBox="0 0 14 14" fill="none" xmlns="http://www.w3.org/2000/svg">
<path d="M7.95091 0.987159L9.05862 3.36654C9.21036 3.69312 9.6255 4.0223 9.98126 4.08772L12.097 4.50486C13.4518 4.76899 13.7364 5.76253 12.7353 6.71244L11.0304 8.32106C10.7457 8.59071 10.5699 9.13078 10.6498 9.51548L11.0633 11.5784C11.3881 13.207 10.5113 13.8114 9.10683 12.9245L7.14488 11.6853C6.78761 11.4589 6.19578 11.4469 5.83119 11.6476L3.80257 12.767C2.35045 13.5669 1.50771 12.9146 1.92646 11.3088L2.46099 9.2769C2.56081 8.89707 2.42367 8.34772 2.15375 8.06332L0.534224 6.35693C-0.410422 5.35379 -0.0691834 4.3788 1.29631 4.19102L3.42834 3.89932C3.78836 3.84714 4.22207 3.5511 4.38949 3.23076L5.63343 0.914791C6.31207 -0.332419 7.35308 -0.300491 7.95091 0.987159Z" fill="#FF9F31"/>
</svg>
