<svg width="21" height="21" viewBox="0 0 21 21" fill="none" xmlns="http://www.w3.org/2000/svg">
<path d="M19.9669 7.45587L10.5919 0.1642C10.4549 0.057771 10.2863 0 10.1128 0C9.93926 0 9.77067 0.057771 9.63362 0.1642L0.258616 7.45587C0.111699 7.5881 0.0203635 7.7711 0.00301628 7.96799C-0.014331 8.16489 0.0435994 8.36104 0.165133 8.51692C0.286667 8.6728 0.462769 8.77682 0.65795 8.80802C0.853132 8.83921 1.05288 8.79527 1.21695 8.68503L2.03987 8.07045V18.4871C2.0426 18.9697 2.23554 19.4318 2.57681 19.7731C2.91808 20.1144 3.38016 20.3073 3.86278 20.31H16.3628C16.8454 20.3073 17.3075 20.1144 17.6488 19.7731C17.99 19.4318 18.183 18.9697 18.1857 18.4871V8.07045L19.0086 8.70587C19.145 8.8139 19.3138 8.87264 19.4878 8.87253C19.6064 8.87216 19.7234 8.84476 19.8299 8.79242C19.9364 8.74008 20.0296 8.66417 20.1024 8.57045C20.1697 8.48966 20.2198 8.39595 20.2496 8.29508C20.2794 8.19421 20.2882 8.08831 20.2755 7.9839C20.2628 7.87949 20.2289 7.77878 20.1758 7.68797C20.1228 7.59717 20.0517 7.51818 19.9669 7.45587ZM8.02945 8.8517C8.28698 8.8517 8.53872 8.92807 8.75285 9.07114C8.96698 9.21422 9.13387 9.41757 9.23242 9.6555C9.33097 9.89342 9.35676 10.1552 9.30651 10.4078C9.25627 10.6604 9.13226 10.8924 8.95016 11.0745C8.76806 11.2566 8.53605 11.3806 8.28347 11.4308C8.03089 11.4811 7.76909 11.4553 7.53116 11.3568C7.29324 11.2582 7.08988 11.0913 6.94681 10.8772C6.80373 10.6631 6.72737 10.4113 6.72737 10.1538C6.72737 9.80845 6.86455 9.47726 7.10874 9.23307C7.35293 8.98888 7.68412 8.8517 8.02945 8.8517ZM12.1961 15.6225C11.9386 15.6225 11.6868 15.5462 11.4727 15.4031C11.2586 15.26 11.0917 15.0567 10.9931 14.8187C10.8946 14.5808 10.8688 14.319 10.9191 14.0664C10.9693 13.8138 11.0933 13.5818 11.2754 13.3997C11.4575 13.2176 11.6895 13.0936 11.9421 13.0434C12.1947 12.9931 12.4565 13.0189 12.6944 13.1175C12.9323 13.216 13.1357 13.3829 13.2788 13.5971C13.4218 13.8112 13.4982 14.0629 13.4982 14.3205C13.4982 14.6658 13.361 14.997 13.1168 15.2412C12.8726 15.4854 12.5415 15.6225 12.1961 15.6225ZM13.7899 9.6642L7.53987 15.9142C7.39338 16.0605 7.19481 16.1427 6.98778 16.1427C6.78075 16.1427 6.58218 16.0605 6.4357 15.9142C6.2894 15.7677 6.20722 15.5691 6.20722 15.3621C6.20722 15.1551 6.2894 14.9565 6.4357 14.81L12.6857 8.56003C12.8338 8.42203 13.0297 8.3469 13.2321 8.35048C13.4345 8.35405 13.6276 8.43604 13.7707 8.57918C13.9139 8.72232 13.9959 8.91543 13.9994 9.11782C14.003 9.32022 13.9279 9.5161 13.7899 9.6642Z" fill="#66AE39"/>
</svg>
